<svg xmlns="http://www.w3.org/2000/svg" xmlns:xlink="http://www.w3.org/1999/xlink" height="460" contentStyleType="text/css" preserveAspectRatio="none" style="width:489px;height:460px;background:#fff" width="489" version="1.1" viewBox="0 0 489 460" zoomAndPan="magnify"><g><text x="118.75" y="22.995" fill="#000" font-family="sans-serif" font-size="14" font-weight="bold" lengthAdjust="spacing" textLength="238">Déploiement d&apos;une application</text><g id="cluster_dépôt git"><polygon fill="none" points="155 44.297 155 44.507 165.2 43.883 175.4 44.49 185.6 44.697 195.8 43.584 206 44.219 216.2 43.87 226.4 43.913 236.6 44.229 246.8 43.605 257 44.297 257.071 44.467 257.273 44.249 257.682 44.529 258.116 44.869 258.403 44.856 258.768 45.029 258.789 45.038 258.904 45.379 259.116 45.759 259.281 46.12 259.534 46.518 259.5 46.797 260.171 46.797 260.179 56.275 259.755 65.752 259.964 75.23 260.202 84.708 258.779 94.186 260.178 103.663 259.204 113.141 260.034 122.619 259.5 132.097 259.348 132.034 259.332 132.442 259.435 132.899 259.046 133.151 258.947 133.524 258.768 133.865 258.811 133.969 258.467 134.139 258.06 134.156 257.744 134.392 257.281 134.274 257 134.597 257 134.881 246.8 135.145 236.6 135.041 226.4 135.21 216.2 134.114 206 133.945 195.8 133.976 185.6 134.538 175.4 134.4 165.2 135.278 155 134.597 154.978 134.543 154.603 134.345 154.322 134.374 153.854 133.952 153.52 133.851 153.232 133.865 153.432 133.947 153.22 133.567 153.166 133.251 152.694 132.763 152.745 132.491 152.5 132.097 153.09 132.097 152.028 122.619 152.404 113.141 152.626 103.663 153.152 94.186 152.496 84.708 152.963 75.23 151.946 65.752 151.823 56.275 152.5 46.797 152.655 46.861 152.426 46.352 152.95 46.155 153.003 45.763 153.003 45.349 153.232 45.029 153.187 44.92 153.644 45.024 153.901 44.644 154.368 44.772 154.576 44.273 155 44.297" style="stroke:#181818;stroke-width:1"/><polygon fill="none" points="242.5 49.297 242.57 49.297 242.362 52.097 242.564 54.897 242.633 57.697 242.262 60.497 242.5 63.297 242.5 63.271 244.9 63.155 247.3 63.169 249.7 63.274 252.1 63.066 254.5 63.297 254.685 63.297 254.29 61.697 254.434 60.097 254.644 58.497 254.471 56.897 254.5 55.297 254.516 55.313 253.292 54.089 252.142 52.939 250.956 51.753 249.838 50.635 248.5 49.297 248.5 49.521 247.3 49.523 246.1 49.382 244.9 49.451 243.7 49.531 242.5 49.297" style="stroke:#181818;stroke-width:1"/><path fill="none" d="M248.5,49.2969 L248.5934,49.2969 L248.3159,50.4969 L248.5859,51.6969 L248.6776,52.8969 L248.1829,54.0969 L248.5,55.2969" style="stroke:#181818;stroke-width:1"/><path fill="none" d="M254.5,55.2969 L254.5,55.3903 L253.3,55.1127 L252.1,55.3828 L250.9,55.4745 L249.7,54.9798 L248.5,55.2969" style="stroke:#181818;stroke-width:1"/><text x="160.5" y="59.292" fill="#000" font-family="sans-serif" font-size="14" font-weight="bold" lengthAdjust="spacing" textLength="71">dépôt git</text></g><g id="cluster_Cloud Provider"><path fill="none" d="M247.1446,216.6054 L247.1446,216.6054 L247.1447,216.6988 L250.0864,216.4252 L253.0288,216.6993 L255.971,216.795 L258.9124,216.3043 L261.8549,216.6253 L261.8549,216.6253 L261.8474,216.5916 L264.7574,215.7791 L267.7057,215.1365 L270.6804,214.612 L273.5637,213.6806 L276.5751,213.3191 L276.5751,213.3191 L276.6119,213.5624 L279.5185,212.5903 L282.5326,212.3284 L285.5598,212.1533 L288.5107,211.4739 L291.5017,211.0597 L291.5017,211.0597 L291.5022,211.09 L294.208,211.0928 L296.9163,211.2337 L299.6233,211.308 L302.3326,211.5093 L305.0346,211.2964 L305.0346,211.2964 L305.1236,211.581 L307.9654,210.6958 L310.7498,209.6269 L313.6182,208.8268 L316.4905,208.0393 L319.238,206.8528 L319.238,206.8528 L319.2347,206.5322 L322.5478,207.1196 L325.8498,206.6516 L329.1603,206.986 L332.4621,206.494 L335.771,206.6794 L335.771,206.6794 L335.7702,206.6489 L338.6024,207.0807 L341.4165,206.8014 L344.2413,206.9418 L347.067,207.1173 L349.8863,207.0387 L349.8863,207.0387 L349.9445,207.2143 L352.575,207.9284 L355.305,208.9425 L357.8741,209.4712 L360.6832,210.724 L363.3327,211.4953 L363.3327,211.4953 L363.3441,211.7387 L366.5608,211.5415 L369.7832,211.4652 L372.9792,210.8274 L376.1945,210.6012 L379.427,210.7395 L379.427,210.7395 L379.3451,210.4758 L382.2093,211.5805 L384.9812,212.388 L387.8869,213.6266 L390.5642,214.1292 L393.3773,215.0692 L393.3773,215.0692 L393.374,214.9168 L396.2558,215.2342 L399.1233,214.9 L402.001,215.0291 L404.8887,215.6116 L407.7586,215.3868 L407.7586,215.3868 L407.8128,215.5727 L410.5796,214.9049 L413.1778,213.6588 L415.9871,213.137 L418.7505,212.4574 L421.4067,211.4101 L421.2341,211.2906 L422.9903,213.7232 L424.69,216.1167 L426.5008,218.5871 L427.8798,220.7585 L429.5,223.0969 L429.5,223.0969 L429.7007,223.1413 L429.3806,223.5904 L429.4479,224.1253 L430.0812,224.7854 L429.6725,225.2149 L430.1045,225.8305 L430.1045,225.8305 L430.3301,225.8473 L430.4498,229.2297 L430.4932,232.6064 L430.7089,235.9959 L431.3228,239.4153 L431.3732,242.7924 L431.3732,242.7924 L431.2406,242.7817 L431.8731,245.7513 L431.6038,248.648 L432.3599,251.6276 L432.5387,254.5605 L432.5619,257.4808 L432.5619,257.4808 L432.6708,257.4821 L432.5401,261.3167 L432.7992,265.1557 L432.7061,268.9908 L432.4658,272.8242 L432.3478,276.659 L432.3478,276.659 L432.4659,276.6747 L432.6878,279.6463 L433.4582,282.6907 L433.6082,285.6527 L434.0134,288.6487 L434.3348,291.6335 L434.3348,291.6335 L434.1268,291.4607 L435.7794,293.424 L437.6826,295.5956 L439.2313,297.4725 L440.6529,299.244 L442.2507,301.1618 L442.1294,301.0859 L440.8535,303.2101 L439.3628,305.1998 L438.4628,307.5594 L437.2705,309.7359 L435.6772,311.6614 L435.6772,311.6614 L435.9109,311.6717 L435.8358,315.0882 L435.3166,318.4852 L435.266,321.9028 L434.9052,325.3067 L434.9274,328.7275 L434.9274,328.7275 L435.0534,328.7349 L434.8649,331.6438 L434.8285,334.5616 L434.3095,337.4509 L434.1798,340.3632 L434.0674,343.2765 L434.0674,343.2765 L434.2642,343.2878 L434.1004,347.1061 L433.4024,350.8939 L433.325,354.7172 L433.2585,358.5411 L432.9735,362.3525 L432.9735,362.3525 L432.7024,362.3385 L432.9741,365.3754 L432.7756,368.388 L432.4601,371.3945 L432.4118,374.4148 L432.1924,377.4263 L432.1924,377.4263 L432.5159,377.4404 L432.2217,381.2777 L432.6688,385.1473 L432.824,389.0042 L432.9168,392.8583 L433.0337,396.7135 L433.0337,396.7135 L433.0955,396.7232 L432.5781,399.9593 L431.7488,403.1467 L431.3414,406.4 L430.8094,409.6338 L430.5067,412.9035 L430.5067,412.9035 L430.5339,412.9113 L431.3654,415.7626 L432.218,418.6199 L432.8457,421.4125 L433.7623,424.2882 L434.6122,427.1448 L434.5814,427.1012 L432.3375,429.0628 L429.8766,430.7166 L427.2205,432.0937 L424.9038,433.952 L422.5,435.6869 L422.5,435.6869 L422.38,435.4601 L422.9004,435.9804 L423.3075,436.2863 L423.6346,436.4415 L423.7713,436.2367 L424.2023,436.588 L424.2023,436.588 L424.2214,436.7933 L421.4148,436.5149 L418.6965,437.1879 L415.9189,437.2225 L413.1782,437.6534 L410.4171,437.8662 L410.4171,437.8662 L410.4405,437.9704 L407.1862,438.8067 L403.7932,439.0256 L400.6327,440.2798 L397.3269,440.8867 L394.0326,441.5452 L394.0326,441.5452 L394.0471,441.7024 L391.1309,442.1467 L388.1684,442.0888 L385.2431,442.4345 L382.3124,442.7219 L379.3715,442.898 L379.3715,442.898 L379.3787,442.9854 L376.6919,442.6772 L374.0382,442.772 L371.3105,441.9667 L368.6738,442.2667 L365.9736,441.7959 L365.9736,441.7959 L365.9183,441.5241 L362.3989,442.2784 L358.9235,443.249 L355.3957,443.9618 L351.8227,444.4527 L348.3396,445.3852 L348.3396,445.3852 L348.3479,445.5689 L345.6896,445.5534 L343.0499,445.9476 L340.3966,446.0411 L337.722,445.6658 L335.0789,445.9847 L335.0789,445.9847 L335.0704,445.808 L331.9655,445.7784 L328.8652,445.8446 L325.7556,445.7168 L322.6428,445.5226 L319.5258,445.24 L319.5258,445.24 L319.5029,445.0898 L316.6631,445.0776 L313.7577,444.6345 L310.807,443.8933 L307.889,443.367 L304.9997,443.0301 L304.9997,443.0301 L304.9653,442.855 L302.1682,442.3833 L299.3853,441.9836 L296.5545,441.3406 L293.7114,440.635 L290.9341,440.264 L290.9341,440.264 L290.9369,440.4806 L287.6185,440.1031 L284.3111,440.5733 L280.9978,440.5828 L277.6845,440.6012 L274.3695,440.4789 L274.3695,440.4789 L274.4341,440.7798 L271.8713,439.84 L269.391,439.2842 L266.9924,439.1082 L264.413,438.0914 L261.9935,437.8187 L261.9935,437.8187 L261.9656,437.7185 L258.8941,438.7355 L255.7754,439.5828 L252.6112,440.2673 L249.5357,441.2697 L246.4276,442.1555 L246.7035,442.3383 L244.8823,439.621 L242.6357,436.6216 L241.1001,434.0936 L239.0951,431.2544 L237.5,428.6869 L237.5,428.6869 L237.4998,428.6752 L237.9068,428.8256 L238.312,428.8906 L238.7059,428.4172 L239.1199,428.8991 L239.5202,428.7296 L239.5202,428.7296 L239.5239,428.7301 L238.9311,426.1253 L238.6237,423.5588 L238.6306,421.0343 L238.2523,418.4583 L237.7977,415.872 L237.7977,415.872 L237.7905,415.8712 L237.1817,412.8952 L237.4503,410.0142 L236.7026,407.0231 L236.288,404.068 L236.2022,401.1487 L236.2022,401.1487 L236.1724,401.1459 L236.191,398.1786 L235.9302,395.1858 L235.4012,392.1686 L235.0466,389.1673 L234.8413,386.1796 L234.8413,386.1796 L234.9162,386.1889 L234.5568,383.2417 L233.8841,380.2554 L233.9239,377.3578 L233.6212,374.4176 L233.0081,371.4388 L233.0081,371.4388 L232.9122,371.4386 L232.8105,368.691 L233.2943,365.9448 L232.9971,363.1967 L232.9809,360.4492 L232.9741,357.7018 L232.9741,357.7018 L233.1063,357.7159 L232.357,354.5639 L232.5448,351.5119 L231.972,348.3788 L231.9426,345.3036 L231.3152,342.1646 L231.3152,342.1646 L231.2197,342.1554 L231.189,338.9987 L230.5045,335.7789 L230.5021,332.625 L230.2543,329.4474 L229.7793,326.2478 L229.7793,326.2478 L229.6339,326.2445 L229.8784,323.5618 L229.4009,320.8625 L229.3836,318.1738 L229.8338,315.4959 L229.4681,312.7991 L229.4681,312.7991 L229.7672,312.8543 L230.3057,309.6499 L230.4888,306.38 L231.4033,303.2449 L231.6182,299.9809 L232.4136,296.8239 L232.4136,296.8239 L232.4391,296.8281 L232.8578,294.1295 L233.188,291.4164 L234.0179,288.7858 L234.387,286.079 L234.6374,283.3527 L234.6374,283.3527 L234.4951,283.3441 L235.0424,280.5305 L235.0209,277.6826 L234.8926,274.8281 L235.2193,272.0012 L235.4942,269.1711 L235.4942,269.1711 L235.2608,269.169 L235.4599,266.1735 L235.2697,263.1744 L235.3101,260.1774 L235.6356,257.183 L235.6319,254.1857 L235.6319,254.1857 L235.5788,254.1786 L236.0029,251.1942 L236.3624,248.2012 L236.896,245.2314 L236.9745,242.2011 L237.6159,239.2455 L237.6159,239.2455 L237.6832,239.2686 L236.3414,236.3327 L235.8163,233.6768 L234.979,230.9139 L233.9873,228.098 L232.8057,225.2171 L232.9045,225.3437 L235.1971,223.4604 L237.5123,221.6061 L239.6474,219.5207 L242.2832,218.0774 L244.5,216.0969 L244.5,216.0969 L244.5277,216.2407 L245.016,216.1316 L245.5573,216.2978 L246.0692,216.3109 L246.6339,216.5987 L247.1446,216.6054" style="stroke:#181818;stroke-width:1"/><text x="275" y="234.092" fill="#000" font-family="sans-serif" font-size="14" font-weight="bold" lengthAdjust="spacing" textLength="117">Cloud Provider</text></g><g id="elem_code"><polygon fill="#F1F1F1" points="179.5 79.297 179.5 79.507 189.5 78.883 199.5 79.49 209.5 79.697 219.5 78.584 229.5 79.219 239.5 79.297 239.446 79.165 239.805 79.325 240.198 79.569 240.472 79.523 240.985 80.053 241.268 80.029 241.074 79.949 241.353 80.357 241.694 80.791 241.681 81.079 241.875 81.452 242 81.797 241.989 81.797 242.06 88.656 242.08 95.516 242.195 102.375 242.224 109.234 242 116.094 242.209 116.18 241.932 116.48 241.85 116.86 241.777 117.244 241.192 117.416 241.268 117.862 241.354 118.07 240.876 117.917 240.629 118.319 240.144 118.148 239.845 118.426 239.5 118.594 239.5 119.335 229.5 118.545 219.5 118.699 209.5 118.932 199.5 119.01 189.5 118.59 179.5 118.594 179.537 118.682 179.073 118.271 178.829 118.388 178.509 118.323 178.143 118.145 177.732 117.862 177.921 117.94 177.437 117.446 177.238 117.071 177.101 116.722 177.128 116.44 177 116.094 176.935 116.094 177.227 109.234 176.942 102.375 176.886 95.516 177.076 88.656 177 81.797 176.795 81.712 176.987 81.377 177.493 81.172 177.573 80.792 177.812 80.476 177.732 80.029 177.691 79.93 178.126 79.981 178.515 79.918 178.733 79.444 179.134 79.414 179.5 79.297" style="stroke:#181818;stroke-width:.5"/><polygon fill="#F1F1F1" points="225 84.297 225.07 84.297 224.862 87.097 225.064 89.897 225.133 92.697 224.762 95.497 225 98.297 225 98.271 227.4 98.155 229.8 98.169 232.2 98.274 234.6 98.066 237 98.297 237.185 98.297 236.79 96.697 236.934 95.097 237.144 93.497 236.971 91.897 237 90.297 237.016 90.313 235.792 89.089 234.642 87.939 233.456 86.753 232.338 85.635 231 84.297 231 84.521 229.8 84.523 228.6 84.382 227.4 84.451 226.2 84.531 225 84.297" style="stroke:#181818;stroke-width:.5"/><path fill="#F1F1F1" d="M231,84.2969 L231.0934,84.2969 L230.8159,85.4969 L231.0859,86.6969 L231.1776,87.8969 L230.6829,89.0969 L231,90.2969" style="stroke:#181818;stroke-width:.5"/><path fill="#F1F1F1" d="M237,90.2969 L237,90.3903 L235.8,90.1127 L234.6,90.3828 L233.4,90.4745 L232.2,89.9798 L231,90.2969" style="stroke:#181818;stroke-width:.5"/><text x="187" y="105.292" fill="#000" font-family="sans-serif" font-size="14" lengthAdjust="spacing" textLength="35">code</text></g><g id="elem_bdd"><path fill="#F1F1F1" d="M261.5,384.3869 L261.5,384.3869 L261.5409,384.4709 L263.7944,383.0651 L266.2876,382.1516 L268.7028,381.0778 L270.8612,379.4768 L273.375,378.6056 L273.37,378.5714 L275.782,378.0626 L278.2191,377.726 L280.6737,377.5092 L283.0681,376.8797 L285.5469,376.8283 L285.5678,377.0735 L288.3137,376.3109 L291.1206,376.2641 L293.9351,376.3047 L296.7061,375.8372 L299.5,375.6369 L299.5016,375.6672 L302.2899,375.4782 L305.0854,375.4271 L307.8774,375.3094 L310.676,375.3187 L313.4531,374.9142 L313.4622,375.2123 L315.8967,375.1418 L318.3253,374.8789 L320.7625,374.8975 L323.2001,374.9293 L325.625,374.5431 L325.6208,374.2226 L328.004,374.8134 L330.3733,374.3489 L332.7531,374.6866 L335.1221,374.1981 L337.5,374.3869 L337.5,374.3869 L337.4996,374.3564 L339.8793,374.7477 L342.2497,374.4277 L344.6256,374.5274 L347.002,374.6624 L349.375,374.5431 L349.3806,374.728 L351.8093,374.6156 L354.2476,374.8192 L356.6704,374.5115 L359.1164,374.9663 L361.5469,374.9142 L361.5595,375.1575 L364.3477,375.2561 L367.1422,375.4754 L369.9076,375.1334 L372.6944,375.2029 L375.5,375.6369 L375.4765,375.3617 L378.2884,375.8491 L381.0738,376.0264 L383.8976,376.6535 L386.6559,376.5126 L389.4531,376.8283 L389.4311,376.6774 L391.9022,377.2841 L394.2791,377.246 L396.7229,377.6664 L399.2323,378.5356 L401.625,378.6056 L401.7098,378.7797 L404.1429,380.0554 L406.3124,380.7895 L408.8121,382.2019 L411.2399,383.4666 L413.5,384.3869 L413.0801,384.3869 L413.4148,389.4462 L413.612,394.5056 L414.0793,399.565 L413.4963,404.6244 L413.5,409.6838 L413.5,409.6838 L413.59,409.8686 L411.0173,410.6187 L408.6182,411.7256 L406.473,413.3537 L403.8605,414.0223 L401.625,415.465 L401.6577,415.6888 L399.2039,415.9113 L396.739,416.0581 L394.2992,416.3758 L391.917,417.0886 L389.4531,417.2423 L389.4418,417.1098 L386.6849,417.7427 L383.851,417.4741 L381.1046,418.2306 L378.3089,418.4099 L375.5,418.4338 L375.5056,418.5425 L372.7105,418.5992 L369.9355,419.0453 L367.1422,419.1397 L364.3414,419.087 L361.5469,419.1564 L361.5505,419.2755 L359.1107,419.1728 L356.6878,419.6231 L354.2458,419.4479 L351.8117,419.5299 L349.375,419.5275 L349.3714,419.2571 L346.9976,419.3787 L344.6281,419.8259 L342.2525,419.8122 L339.8747,419.6334 L337.5,419.6838 L337.5,419.6838 L337.4981,419.5406 L335.1237,419.5552 L332.746,419.3163 L330.3774,419.7743 L328.0043,419.8874 L325.625,419.5275 L325.6321,419.7613 L323.2,419.762 L320.7544,419.3183 L318.3231,419.3436 L315.8823,419.0584 L313.4531,419.1564 L313.4597,419.2825 L310.6682,419.1214 L307.8846,419.1125 L305.076,418.6209 L302.2875,418.5186 L299.5,418.4338 L299.5168,418.6301 L296.7308,418.4467 L293.8994,417.7302 L291.1208,417.633 L288.3431,417.5467 L285.5469,417.2423 L285.5076,416.9737 L283.1352,417.0423 L280.6947,416.6449 L278.2373,416.1316 L275.8185,415.883 L273.375,415.465 L273.5168,415.7562 L270.9391,414.1837 L268.6863,413.2784 L266.3056,412.1104 L263.8975,410.8863 L261.5,409.6838 L261.6253,409.6838 L261.6009,404.6244 L260.9452,399.565 L261.1437,394.5056 L261.0897,389.4462 L261.5,384.3869" style="stroke:#181818;stroke-width:.5"/><path fill="none" d="M261.5,384.3869 L261.5,384.3869 L261.5409,384.4709 L263.7944,385.3776 L266.2876,386.7766 L268.7028,388.0153 L270.8612,388.7268 L273.375,390.1681 L273.37,390.1339 L275.782,390.336 L278.2191,390.7104 L280.6737,391.2046 L283.0681,391.2859 L285.5469,391.9455 L285.5678,392.1906 L288.3137,391.9046 L291.1206,392.3345 L293.9351,392.8516 L296.7061,392.8606 L299.5,393.1369 L299.5016,393.1672 L302.2899,393.2672 L305.0854,393.5052 L307.8774,393.6766 L310.676,393.975 L313.4531,393.8595 L313.4622,394.1576 L315.8967,394.2355 L318.3253,394.1211 L320.7625,394.2881 L323.2001,394.4684 L325.625,394.2306 L325.6208,393.9101 L328.004,394.5634 L330.3733,394.1614 L332.7531,394.5616 L335.1221,394.1356 L337.5,394.3869 L337.5,394.3869 L337.4996,394.3564 L339.8793,394.6852 L342.2497,394.3027 L344.6256,394.3399 L347.002,394.4124 L349.375,394.2306 L349.3806,394.4155 L351.8093,394.1547 L354.2476,394.2098 L356.6704,393.7537 L359.1164,394.0601 L361.5469,393.8595 L361.5595,394.1028 L364.3477,393.9123 L367.1422,393.8426 L369.9076,393.2115 L372.6944,392.9919 L375.5,393.1369 L375.4765,392.8617 L378.2884,392.8725 L381.0738,392.5733 L383.8976,392.7238 L386.6559,392.1064 L389.4531,391.9455 L389.4311,391.7946 L391.9022,391.6904 L394.2791,390.9413 L396.7229,390.6508 L399.2323,390.809 L401.625,390.1681 L401.7098,390.3422 L404.1429,389.3054 L406.3124,387.727 L408.8121,386.8269 L411.2399,385.7791 L413.5,384.3869" style="stroke:#181818;stroke-width:.5"/><text x="271.5" y="411.382" fill="#000" font-family="sans-serif" font-size="14" lengthAdjust="spacing" textLength="132">&quot;base de données&quot;</text></g><g id="elem_appli"><polygon fill="#F1F1F1" points="302.5 261.097 302.55 261.146 304.402 258.999 306.546 257.142 308.594 255.191 310.332 252.929 312.5 251.097 312.5 251.019 322.833 250.67 333.167 250.713 343.5 251.029 353.833 250.405 364.167 251.65 374.5 251.097 374.29 251.097 374.434 258.356 374.644 265.616 374.471 272.875 374.523 280.134 374.5 287.394 374.493 287.386 372.542 289.436 370.556 291.45 368.638 293.532 366.658 295.552 364.5 297.394 364.5 298.073 354.167 297.648 343.833 297.857 333.5 298.096 323.167 296.673 312.833 298.072 302.5 297.394 302.401 297.394 302.678 290.134 302.335 282.875 302.477 275.616 302.747 268.356 302.5 261.097" style="stroke:#181818;stroke-width:.5"/><path fill="#F1F1F1" d="M364.5,261.0969 L364.5661,261.1629 L366.3698,258.9667 L368.5607,257.1576 L370.6256,255.2225 L372.2758,252.8727 L374.5,251.0969" style="stroke:#181818;stroke-width:.5"/><path fill="#F1F1F1" d="M302.5,261.0969 L302.5,261.3771 L312.8333,260.5444 L323.1667,261.3546 L333.5,261.6298 L343.8333,260.1457 L354.1667,260.9933 L364.5,261.0969" style="stroke:#181818;stroke-width:.5"/><path fill="#F1F1F1" d="M364.5,261.0969 L364.5934,261.0969 L364.3159,268.3562 L364.5859,275.6156 L364.6776,282.875 L364.1829,290.1344 L364.5,297.3937" style="stroke:#181818;stroke-width:.5"/><text x="317.5" y="284.092" fill="#000" font-family="sans-serif" font-size="14" lengthAdjust="spacing" textLength="32">appli</text></g><g id="elem_Développeur"><polygon fill="#F1F1F1" points="58.544 71.243 57.371 72.845 55.984 75.192 54.001 76.773 51.916 77.638 50.254 77.713 48.118 76.632 46.102 75.925 44.572 74.49 43.77 72.848 43.294 71.54 42.828 69.832 42.071 68.362 42.653 66.927 43.162 65.355 45.074 64.111 46.419 62.498 48.084 61.962 50.064 61.501 52.602 61.775 53.992 62.43 55.609 62.728 57.574 64.741 58.26 66.867 58.557 68.317 58.22 70.708" style="stroke:#181818;stroke-width:.5"/><path fill="none" d="M50.5,77.2969 L50.6868,77.2969 L50.1317,82.6969 L50.6718,88.0969 L50.8553,93.4969 L49.8659,98.8969 L50.5,104.2969 M37.5,85.2969 L37.5,85.2278 L42.7,84.9178 L47.9,84.956 L53.1,85.2363 L58.3,84.6823 L63.5,85.2969 M50.5,104.2969 L50.8719,104.6192 L47.4766,106.93 L45.1672,110.1817 L42.9901,113.5483 L40.0424,116.2469 L37.5,119.2969 M50.5,104.2969 L50.5458,104.3366 L53.0785,107.2783 L55.8199,110.4008 L58.4606,113.4361 L61.2934,116.6378 L63.5,119.2969" style="stroke:#181818;stroke-width:.5"/><text x="6" y="133.792" fill="#000" font-family="sans-serif" font-size="14" lengthAdjust="spacing" textLength="89">Développeur</text></g><g id="elem_c"><polygon fill="pink" points="312 80.797 312 81.007 322.333 80.383 332.667 80.99 343 81.197 353.333 80.084 363.667 80.719 374 80.37 384.333 80.413 394.667 80.729 405 80.797 404.952 80.572 409.988 82.04 414.855 82.718 419.835 83.922 424.829 85.19 429.749 86.112 429.726 86.095 431.817 88.693 433.841 91.239 435.946 93.849 438.012 96.428 440 98.945 440.152 99.067 438.125 101.651 436.076 104.22 433.916 106.698 431.92 109.308 429.749 111.778 429.798 112.007 424.748 112.606 419.897 114.126 414.879 114.871 409.987 116.205 405 117.094 405 116.599 394.667 117.025 384.333 117.835 374 117.045 363.667 117.199 353.333 117.432 343 117.51 332.667 117.09 322.333 117.381 312 117.094 311.96 116.907 307.07 116.123 302.139 115.146 297.182 114.049 292.244 113.041 287.251 111.778 287.125 111.678 285.031 109.076 282.989 106.516 281.085 104.066 278.999 101.471 277 98.945 277.178 99.087 279.005 96.342 281.011 93.741 283.21 91.293 285.027 88.54 287.251 86.112 287.215 85.943 292.246 85.261 297.181 84.128 302.152 83.162 307.028 81.755 312 80.797" style="stroke:red;stroke-width:2"/><text x="287" y="103.792" fill="#000" font-family="sans-serif" font-size="14" lengthAdjust="spacing" textLength="143">&quot;Identifiants de BDD&quot;</text></g><g id="link_appli_bdd"><path fill="none" d="M338.31,297.6769 L338.5902,297.6792 L337.6747,307.7366 L338.402,317.8076 L338.5943,327.8742 L337.0273,337.9263 L337.792,347.9976 L337.2441,358.0581 L337.7299,368.1271" style="stroke:#181818;stroke-width:1"/><polygon fill="#181818" points="337.68 374.127 337.744 374.156 338.369 372.276 339.368 370.567 340.246 368.802 340.723 366.855 341.755 365.16 341.736 365.142 340.848 365.852 340.052 366.656 339.319 367.524 338.367 368.169 337.722 369.127 337.853 369.257 336.779 368.173 336.088 367.468 335.444 366.808 334.528 365.88 333.755 365.094 333.776 365.103 334.53 366.896 335.38 368.731 336.183 370.546 337.074 372.398 337.68 374.127" style="stroke:#181818;stroke-width:1"/><text x="338.5" y="340.454" fill="#000" font-family="sans-serif" font-size="13" lengthAdjust="spacing" textLength="103">stocke Données</text></g><g id="link_Développeur_code"><path fill="none" d="M95.21,98.9469 L95.21,99.2271 L105.3975,98.3944 L115.585,99.2046 L125.7725,99.4798 L135.96,97.9957 L146.1475,98.8433 L156.335,98.3782 L166.5225,98.4355 L176.71,98.9469" style="stroke:#181818;stroke-width:1"/><text x="113.5" y="92.014" fill="#000" font-family="sans-serif" font-size="13" lengthAdjust="spacing" textLength="45">Produit</text></g><g id="link_code_Cloud Provider"><path fill="none" d="M212.55,118.8169 L212.8267,118.8616 L213.6652,129.0075 L216.1255,139.4155 L218.0578,149.7381 L218.2532,159.7802 L220.7505,170.1941 L221.952,180.3987 L223.6691,190.6866 L225.7447,201.0324 L227.495,211.3256 L227.1917,211.2766 L227.9331,212.5725 L227.6087,213.6962 L227.9937,214.9345 L228.4651,216.1867 L228.4707,217.3637" style="stroke:#181818;stroke-width:1"/><polygon fill="#181818" points="229.428 223.287 229.496 223.305 229.797 221.347 230.495 219.494 231.065 217.607 231.208 215.608 231.941 213.764 231.92 213.749 231.163 214.598 230.513 215.524 229.936 216.503 229.106 217.299 228.63 218.351 228.738 218.501 227.59 217.518 226.757 216.973 225.962 216.481 224.944 215.679 224.043 215.04 224.062 215.053 225.111 216.684 226.247 218.371 227.341 220.032 228.514 221.744 229.428 223.287" style="stroke:#181818;stroke-width:1"/><text x="224.5" y="180.164" fill="#000" font-family="sans-serif" font-size="13" lengthAdjust="spacing" textLength="89">se déploie sur</text></g><g id="link_c_appli"><path fill="none" d="M356.47,117.5169 L356.7484,117.549 L354.7918,127.242 L354.4671,137.1233 L353.6111,146.9432 L351.0073,156.5615 L350.7199,166.4471 L349.1285,176.1822 L348.056,185.9772 L347.3442,195.8138 L345.3893,205.507 L345.9089,215.4857 L343.2113,225.0932 L342.6548,234.9477 L341.7873,244.7664" style="stroke:#181818;stroke-width:1"/><polygon fill="#181818" points="341.1 250.727 341.16 250.762 341.982 248.96 343.157 247.367 344.217 245.705 344.899 243.82 346.105 242.244 346.089 242.224 345.13 242.836 344.252 243.55 343.431 244.336 342.416 244.876 341.673 245.76 341.817 245.875 340.805 244.743 340.215 243.946 339.676 243.19 338.838 242.196 338.157 241.328 338.179 241.335 338.736 243.204 339.391 245.105 339.999 246.991 340.698 248.905 341.1 250.727" style="stroke:#181818;stroke-width:1"/><text x="350.5" y="180.164" fill="#000" font-family="sans-serif" font-size="13" lengthAdjust="spacing" textLength="131">Injection d&apos;identifiant</text></g></g></svg>