<svg xmlns="http://www.w3.org/2000/svg" xmlns:xlink="http://www.w3.org/1999/xlink" height="527" contentStyleType="text/css" preserveAspectRatio="none" style="width:575px;height:527px;background:#fff" width="575" version="1.1" viewBox="0 0 575 527" zoomAndPan="magnify"><g><text x="161.75" y="22.995" fill="#000" font-family="sans-serif" font-size="14" font-weight="bold" lengthAdjust="spacing" textLength="238">Déploiement d&apos;une application</text><g id="cluster_dépôt git"><polygon fill="none" points="117 76.863 117 77.073 127 76.448 137 77.056 147 77.263 157 76.149 167 76.785 177 76.436 187 76.479 197 76.795 207 76.171 217 77.416 227 76.233 237 76.665 247 77.295 257 76.777 267 76.931 277 76.831 287 77.041 297 77.102 307 77.448 317 77.534 327 77.542 337 77.117 347 77.326 357 76.863 357.09 77.079 357.262 76.787 357.794 77.365 358.023 77.211 358.482 77.613 358.768 77.595 358.615 77.532 358.893 77.94 359.289 78.397 359.192 78.65 359.386 79.023 359.5 79.363 359.839 79.363 359.916 89.793 359.496 100.223 359.787 110.653 358.928 121.083 359.784 131.513 360.048 141.943 359.945 152.373 360.113 162.803 359.017 173.233 359.5 183.663 359.299 183.58 359.162 183.937 359.189 184.362 359 184.698 359.124 185.164 358.768 185.431 358.745 185.377 358.37 185.471 358.09 185.794 357.622 185.665 357.287 185.857 357 186.163 357 186.812 347 186.599 337 186.897 327 185.841 317 186.482 307 186.753 297 185.69 287 186.067 277 186.289 267 186.815 257 186.159 247 186.625 237 185.609 227 185.486 217 186.666 207 185.446 197 186.672 187 186.369 177 185.895 167 185.809 157 186.622 147 185.863 137 186.755 127 185.61 117 186.163 117.079 186.353 116.708 186.166 116.324 185.945 115.945 185.738 115.678 185.801 115.232 185.431 115.421 185.509 115.138 185.099 115.022 184.758 114.753 184.353 114.867 184.108 114.5 183.663 114.655 183.663 114.673 173.233 113.892 162.803 114.095 152.373 115.031 141.943 114.93 131.513 114.457 121.083 114.178 110.653 114.281 100.223 113.814 89.793 114.5 79.363 114.628 79.416 114.874 79.104 114.955 78.723 115.153 78.391 115.044 77.931 115.232 77.595 115.243 77.622 115.536 77.329 115.976 77.39 116.324 77.232 116.717 77.179 117 76.863" style="stroke:#181818;stroke-width:1"/><polygon fill="none" points="342.5 81.863 342.57 81.863 342.362 84.663 342.564 87.463 342.633 90.263 342.262 93.063 342.5 95.863 342.5 95.837 344.9 95.721 347.3 95.735 349.7 95.84 352.1 95.632 354.5 95.863 354.685 95.863 354.29 94.263 354.434 92.663 354.644 91.063 354.471 89.463 354.5 87.863 354.516 87.879 353.293 86.655 352.142 85.505 350.956 84.319 349.838 83.201 348.5 81.863 348.5 82.087 347.3 82.089 346.1 81.948 344.9 82.017 343.7 82.097 342.5 81.863" style="stroke:#181818;stroke-width:1"/><path fill="none" d="M348.5,81.8628 L348.5934,81.8628 L348.3159,83.0628 L348.5859,84.2628 L348.6776,85.4628 L348.1829,86.6628 L348.5,87.8628" style="stroke:#181818;stroke-width:1"/><path fill="none" d="M354.5,87.8628 L354.5,87.9562 L353.3,87.6787 L352.1,87.9487 L350.9,88.0404 L349.7,87.5457 L348.5,87.8628" style="stroke:#181818;stroke-width:1"/><text x="191.5" y="91.858" fill="#000" font-family="sans-serif" font-size="14" font-weight="bold" lengthAdjust="spacing" textLength="71">dépôt git</text></g><g id="cluster_Cloud Provider"><path fill="none" d="M335.2854,269.2529 L335.2854,269.2529 L335.3054,269.3442 L338.323,268.3991 L341.4578,267.9889 L344.5545,267.4045 L347.5257,266.2473 L350.6706,265.883 L350.6706,265.883 L350.6682,265.8486 L354.5236,265.4179 L358.3915,265.1608 L362.268,265.0245 L366.1147,264.4721 L370.0031,264.5025 L370.0031,264.5025 L370.0042,264.7486 L373.2362,264.2085 L376.4714,264.3868 L379.7069,264.6527 L382.9403,264.4087 L386.1748,264.4329 L386.1748,264.4329 L386.1794,264.4629 L389.7721,263.855 L393.3861,263.3835 L396.9899,262.8462 L400.6132,262.4345 L404.1725,261.6135 L404.1725,261.6135 L404.223,261.9074 L407.8415,261.2899 L411.4275,260.4829 L415.0612,259.9533 L418.697,259.4368 L422.2622,258.5081 L422.2622,258.5081 L422.2284,258.1893 L426.1165,259.2124 L429.8936,259.1858 L433.755,259.9572 L437.5296,259.9069 L441.3754,260.53 L441.3754,260.53 L441.3692,260.5002 L444.6695,261.5161 L447.8267,261.8352 L451.0683,262.5655 L454.317,263.3303 L457.5145,263.8461 L457.5145,263.8461 L457.5288,264.0305 L461.0228,264.1162 L464.5412,264.517 L468.0201,264.4079 L471.558,265.0594 L475.0567,265.2052 L475.0567,265.2052 L475.083,265.4474 L478.7878,265.8058 L482.5056,266.2844 L486.1625,266.2043 L489.8641,266.5337 L493.6052,267.2261 L493.6052,267.2261 L493.5137,266.9655 L496.5392,266.1675 L499.4617,265.0759 L502.5337,264.4102 L505.3503,263.0174 L508.3187,262.0568 L508.1955,261.967 L510.237,264.6377 L511.7517,266.9247 L513.641,269.4846 L515.8969,272.3114 L517.5,274.6628 L517.5,274.6628 L517.6752,274.7452 L518.0768,275.4 L517.9335,275.7984 L518.4727,276.5179 L518.8632,277.1674 L518.9072,277.6539 L518.9072,277.6539 L518.6972,277.6526 L518.8471,280.4285 L518.9282,283.2039 L519.1444,285.9802 L518.8353,288.7532 L518.8197,291.528 L518.8197,291.528 L519.0239,291.5517 L518.9345,294.6037 L519.2393,297.7015 L520.12,300.8658 L519.9405,303.9075 L520.6163,307.0481 L520.6163,307.0481 L520.8422,307.0612 L520.4928,310.7708 L520.067,314.4759 L519.8137,318.191 L519.959,321.9293 L519.5402,325.6348 L519.5402,325.6348 L519.4074,325.6269 L519.993,328.8637 L519.6753,332.047 L520.3846,335.2911 L520.5156,338.501 L520.4909,341.7017 L520.4909,341.7017 L520.5998,341.702 L520.5019,344.6236 L520.7939,347.5465 L520.7337,350.4682 L520.5263,353.3894 L520.4411,356.311 L520.4411,356.311 L520.5603,356.3132 L520.3174,359.7979 L520.6278,363.293 L520.3124,366.7763 L520.2544,370.2645 L520.1118,373.751 L520.1118,373.751 L519.8428,373.7238 L520.2555,376.9227 L520.9922,380.1544 L521.2704,383.3397 L521.3842,386.5084 L521.726,389.7001 L521.726,389.7001 L521.5842,389.6802 L521.1921,392.7978 L520.5489,395.8801 L520.5959,399.0594 L520.3012,402.1907 L519.5382,405.2562 L519.5382,405.2562 L519.7721,405.2567 L519.84,408.1301 L519.4634,411.0024 L519.556,413.8759 L519.3379,416.7485 L519.5032,419.6221 L519.5032,419.6221 L519.6294,419.6259 L519.7066,422.772 L519.9362,425.9227 L519.6826,429.059 L519.8187,432.2069 L519.9722,435.3553 L519.9722,435.3553 L520.1693,435.3583 L520.278,438.9138 L519.8518,442.4613 L520.0471,446.0182 L520.2533,449.5752 L520.2407,453.129 L520.2407,453.129 L519.9693,453.1217 L520.3143,456.2567 L520.1885,459.3791 L519.9458,462.4984 L519.9704,465.6248 L519.8238,468.7466 L519.8238,468.7466 L520.1459,468.7798 L519.3355,472.1328 L519.2631,475.5618 L518.9001,478.9609 L518.475,482.3535 L518.0738,485.7487 L518.0738,485.7487 L518.1352,485.7611 L518.6332,488.2772 L518.8219,490.7307 L519.4291,493.269 L519.9126,495.7821 L520.6236,498.3414 L520.6411,498.3637 L518.623,499.9545 L516.6184,501.5626 L514.4698,502.9863 L512.5062,504.6469 L510.5,506.2528 L510.5,506.2528 L510.4557,506.2229 L511.079,506.939 L511.3902,507.4443 L511.4208,507.7601 L511.9393,508.4055 L512.3328,508.9663 L512.3328,508.9663 L512.3183,508.7102 L508.5747,508.8819 L504.8175,508.8115 L501.0507,508.5707 L497.261,507.9233 L493.5066,507.9042 L493.5066,507.9042 L493.5135,508.1103 L490.1973,507.6833 L486.9128,508.2114 L483.607,508.0986 L480.3144,508.3837 L477.0146,508.4499 L477.0146,508.4499 L477.0191,508.5566 L473.2262,508.8198 L469.4067,508.4509 L465.6319,509.142 L461.8291,509.1703 L458.0286,509.2516 L458.0286,509.2516 L458.0373,509.4092 L454.302,509.7906 L450.5389,509.6684 L446.7982,509.9509 L443.0542,510.175 L439.3041,510.2875 L439.3041,510.2875 L439.3164,510.3743 L436.0862,510.7418 L432.9127,511.5095 L429.6128,511.383 L426.4681,512.3547 L423.2151,512.5605 L423.2151,512.5605 L423.195,512.2839 L419.9275,512.0832 L416.6761,512.1027 L413.4055,511.8597 L410.1186,511.3909 L406.8643,511.3716 L406.8643,511.3716 L406.9588,511.5293 L404.7503,512.6949 L402.7526,514.2123 L400.6002,515.4714 L398.2065,516.328 L396.17,517.7807 L396.0546,517.6468 L394.2441,516.1089 L392.4964,514.6437 L390.6217,513.0313 L388.7037,511.3686 L386.7279,509.6389 L386.7279,509.6389 L386.7171,509.4873 L383.449,509.6852 L380.1499,509.4484 L376.8293,508.9107 L373.5243,508.5899 L370.2328,508.4601 L370.2328,508.4601 L370.2239,508.2819 L366.6742,508.1873 L363.1282,508.1659 L359.5698,507.8969 L356.0083,507.5642 L352.4637,507.5721 L352.4637,507.5721 L352.5322,507.7776 L349.1077,508.4756 L345.9513,509.9779 L342.6492,511.0432 L339.3499,512.1169 L336.0061,513.0571 L336.251,513.2435 L333.8179,510.2301 L331.6973,507.4545 L329.886,504.9142 L327.3901,501.853 L325.5,499.2528 L325.5,499.2528 L325.4533,499.1599 L325.9814,499.529 L326.4305,499.7407 L326.8037,499.8014 L327.325,500.157 L327.792,500.4044 L327.792,500.4044 L328.1176,500.4632 L327.4718,497.1091 L326.3235,493.6643 L326.0148,490.3711 L325.1518,486.9778 L324.7728,483.6718 L324.7728,483.6718 L324.7611,483.6711 L324.719,480.8317 L324.5915,477.9868 L323.9267,475.1073 L324.2154,472.2892 L323.8541,469.4293 L323.8541,469.4293 L323.8578,469.4295 L323.3843,466.2892 L323.1982,463.1694 L323.3282,460.0723 L323.0707,456.9474 L322.7364,453.817 L322.7364,453.817 L322.7291,453.816 L322.0294,450.6387 L322.2048,447.5759 L321.3665,444.3805 L320.8604,441.2285 L320.6823,438.1195 L320.6823,438.1195 L320.6526,438.1156 L320.5067,434.7818 L320.0825,431.412 L319.3912,428.0077 L318.8736,424.6258 L318.5047,421.2632 L318.5047,421.2632 L318.5802,421.2643 L318.5408,417.9607 L318.1857,414.6528 L318.5486,411.3549 L318.5663,408.0522 L318.2713,404.7451 L318.2713,404.7451 L318.1768,404.729 L317.5327,401.4885 L317.4658,398.3466 L316.6289,395.0733 L316.0691,391.8472 L315.5187,388.6228 L315.5187,388.6228 L315.6511,388.6332 L315.4702,385.5705 L316.2289,382.5814 L316.2249,379.5326 L316.7657,376.5265 L316.7071,373.4733 L316.7071,373.4733 L316.613,373.4547 L317.6073,369.8621 L317.9573,366.142 L318.9796,362.555 L319.7601,358.9201 L320.3166,355.2408 L320.3166,355.2408 L320.1716,355.2287 L320.7158,352.398 L320.5402,349.5072 L320.8233,346.6546 L321.5724,343.841 L321.5084,340.9595 L321.5084,340.9595 L321.8119,340.9788 L321.9534,337.9542 L321.7344,334.9066 L322.2576,331.9064 L322.0707,328.8608 L322.473,325.8529 L322.473,325.8529 L322.4988,325.8548 L322.7597,322.06 L322.9311,318.2583 L323.6076,314.4949 L323.8183,310.6963 L323.909,306.8885 L323.909,306.8885 L323.7669,306.8777 L324.3624,304.0326 L324.3898,301.1439 L324.3105,298.2472 L324.6857,295.3852 L325.0091,292.5193 L325.0091,292.5193 L324.7868,292.448 L323.9887,289.4992 L322.8198,286.4316 L321.8704,283.4344 L321.1927,280.5241 L320.2014,277.5134 L320.1679,277.4716 L322.6448,275.523 L325.081,273.5235 L327.627,271.6611 L329.886,269.4404 L332.5,267.6628 L332.5,267.6628 L332.5353,267.7246 L332.8933,267.694 L333.6794,268.4131 L334.3018,268.8457 L334.8433,269.1364 L335.2854,269.2529" style="stroke:#181818;stroke-width:1"/><text x="363" y="285.658" fill="#000" font-family="sans-serif" font-size="14" font-weight="bold" lengthAdjust="spacing" textLength="117">Cloud Provider</text></g><g id="elem_code"><polygon fill="#F1F1F1" points="280.5 130.863 280.5 131.073 290.5 130.448 300.5 131.056 310.5 131.262 320.5 130.149 330.5 130.785 340.5 130.863 340.446 130.732 340.805 130.891 341.198 131.135 341.473 131.089 341.985 131.619 342.268 131.595 342.074 131.515 342.353 131.923 342.694 132.357 342.681 132.645 342.875 133.018 343 133.363 342.989 133.363 343.06 140.222 343.08 147.082 343.195 153.941 343.224 160.8 343 167.66 343.209 167.746 342.932 168.046 342.85 168.426 342.777 168.81 342.192 168.982 342.268 169.427 342.354 169.636 341.876 169.483 341.629 169.885 341.144 169.714 340.845 169.992 340.5 170.16 340.5 170.901 330.5 170.111 320.5 170.265 310.5 170.498 300.5 170.576 290.5 170.156 280.5 170.16 280.537 170.248 280.073 169.837 279.829 169.954 279.509 169.889 279.142 169.711 278.732 169.427 278.921 169.506 278.437 169.012 278.238 168.637 278.101 168.287 278.128 168.006 278 167.66 277.935 167.66 278.227 160.8 277.942 153.941 277.886 147.082 278.076 140.222 278 133.363 277.795 133.278 277.987 132.943 278.493 132.738 278.574 132.358 278.812 132.042 278.732 131.595 278.691 131.496 279.127 131.547 279.515 131.484 279.733 131.01 280.134 130.98 280.5 130.863" style="stroke:#181818;stroke-width:.5"/><polygon fill="#F1F1F1" points="326 135.863 326.07 135.863 325.862 138.663 326.064 141.463 326.133 144.263 325.762 147.063 326 149.863 326 149.837 328.4 149.721 330.8 149.735 333.2 149.84 335.6 149.632 338 149.863 338.185 149.863 337.79 148.263 337.934 146.663 338.144 145.063 337.971 143.463 338 141.863 338.016 141.879 336.793 140.655 335.642 139.505 334.456 138.319 333.338 137.201 332 135.863 332 136.087 330.8 136.089 329.6 135.948 328.4 136.017 327.2 136.097 326 135.863" style="stroke:#181818;stroke-width:.5"/><path fill="#F1F1F1" d="M332,135.8628 L332.0934,135.8628 L331.8159,137.0628 L332.0859,138.2628 L332.1776,139.4628 L331.6829,140.6628 L332,141.8628" style="stroke:#181818;stroke-width:.5"/><path fill="#F1F1F1" d="M338,141.8628 L338,141.9562 L336.8,141.6787 L335.6,141.9487 L334.4,142.0404 L333.2,141.5457 L332,141.8628" style="stroke:#181818;stroke-width:.5"/><text x="288" y="156.858" fill="#000" font-family="sans-serif" font-size="14" lengthAdjust="spacing" textLength="35">code</text></g><g id="elem_.env.sample"><polygon fill="#ADD8E6" points="132.5 130.863 132.5 131.073 142.318 130.448 152.136 131.056 161.954 131.262 171.773 130.149 181.591 130.785 191.409 130.436 201.227 130.479 211.046 130.795 220.864 130.171 230.682 131.416 240.5 130.863 240.42 130.669 240.828 130.948 241.262 131.289 241.55 131.276 241.923 131.47 242.268 131.595 242.258 131.591 242.469 131.971 242.634 132.333 242.887 132.73 243.06 133.095 243 133.363 243.226 133.363 243.085 140.222 243.155 147.082 243.234 153.941 242.76 160.8 243 167.66 243.209 167.746 242.762 167.975 242.871 168.435 242.408 168.657 242.393 169.065 242.268 169.427 242.362 169.656 241.908 169.559 241.574 169.753 241.25 169.971 240.907 170.141 240.5 170.16 240.5 170.156 230.682 170.447 220.864 169.587 211.046 170.444 201.227 170.708 191.409 170.604 181.591 170.773 171.773 169.677 161.954 169.507 152.136 169.538 142.318 170.101 132.5 170.16 132.475 170.099 132.233 170.223 131.771 169.813 131.396 169.615 131.115 169.644 130.732 169.427 130.527 169.342 130.426 169.008 130.639 168.803 130.427 168.422 130.373 168.107 130 167.66 129.893 167.66 130.106 160.8 130.197 153.941 129.843 147.082 129.968 140.222 130 133.363 130.039 133.379 130.347 133.092 130.292 132.655 130.582 132.361 130.415 131.878 130.732 131.595 130.646 131.387 131.15 131.604 131.348 131.081 131.858 131.312 132.173 131.073 132.5 130.863" style="stroke:#add8e6;stroke-width:2"/><polygon fill="#ADD8E6" points="226 135.863 226.07 135.863 225.862 138.663 226.064 141.463 226.133 144.263 225.762 147.063 226 149.863 226 149.837 228.4 149.721 230.8 149.735 233.2 149.84 235.6 149.632 238 149.863 238.185 149.863 237.79 148.263 237.934 146.663 238.144 145.063 237.971 143.463 238 141.863 238.016 141.879 236.792 140.655 235.642 139.505 234.456 138.319 233.338 137.201 232 135.863 232 136.087 230.8 136.089 229.6 135.948 228.4 136.017 227.2 136.097 226 135.863" style="stroke:#add8e6;stroke-width:2"/><path fill="#ADD8E6" d="M232,135.8628 L232.0934,135.8628 L231.8159,137.0628 L232.0859,138.2628 L232.1776,139.4628 L231.6829,140.6628 L232,141.8628" style="stroke:#add8e6;stroke-width:2"/><path fill="#ADD8E6" d="M238,141.8628 L238,141.9562 L236.8,141.6787 L235.6,141.9487 L234.4,142.0404 L233.2,141.5457 L232,141.8628" style="stroke:#add8e6;stroke-width:2"/><text x="140" y="156.858" fill="#000" font-family="sans-serif" font-size="14" lengthAdjust="spacing" textLength="83">.env.sample</text></g><g id="elem_bdd"><path fill="#F1F1F1" d="M349.5,454.9528 L349.5,454.9528 L349.5409,455.0368 L351.7944,453.631 L354.2876,452.7175 L356.7028,451.6438 L358.8612,450.0427 L361.375,449.1715 L361.37,449.1374 L363.782,448.6285 L366.2191,448.292 L368.6737,448.0752 L371.0681,447.4456 L373.5469,447.3942 L373.5678,447.6394 L376.3137,446.8768 L379.1206,446.8301 L381.9351,446.8706 L384.7061,446.4031 L387.5,446.2028 L387.5016,446.2331 L390.2899,446.0441 L393.0854,445.993 L395.8774,445.8753 L398.676,445.8846 L401.4531,445.4801 L401.4622,445.7782 L403.8967,445.7077 L406.3253,445.4448 L408.7625,445.4634 L411.2001,445.4952 L413.625,445.109 L413.6208,444.7885 L416.004,445.3793 L418.3733,444.9148 L420.7531,445.2525 L423.1221,444.7641 L425.5,444.9528 L425.5,444.9528 L425.4996,444.9224 L427.8793,445.3136 L430.2497,444.9936 L432.6256,445.0933 L435.002,445.2283 L437.375,445.109 L437.3806,445.2939 L439.8093,445.1815 L442.2476,445.3851 L444.6704,445.0774 L447.1164,445.5323 L449.5469,445.4801 L449.5595,445.7235 L452.3477,445.822 L455.1422,446.0413 L457.9076,445.6993 L460.6944,445.7688 L463.5,446.2028 L463.4765,445.9276 L466.2884,446.415 L469.0738,446.5923 L471.8976,447.2194 L474.6559,447.0786 L477.4531,447.3942 L477.4311,447.2433 L479.9022,447.8501 L482.2791,447.8119 L484.7229,448.2323 L487.2323,449.1015 L489.625,449.1715 L489.7098,449.3456 L492.1429,450.6213 L494.3124,451.3555 L496.8121,452.7678 L499.2399,454.0325 L501.5,454.9528 L501.0801,454.9528 L501.4148,460.0122 L501.612,465.0715 L502.0793,470.1309 L501.4963,475.1903 L501.5,480.2497 L501.5,480.2497 L501.59,480.4345 L499.0173,481.1846 L496.6182,482.2915 L494.473,483.9197 L491.8605,484.5882 L489.625,486.0309 L489.6577,486.2547 L487.2039,486.4773 L484.739,486.624 L482.2992,486.9417 L479.917,487.6545 L477.4531,487.8083 L477.4418,487.6757 L474.6849,488.3086 L471.851,488.0401 L469.1046,488.7965 L466.3089,488.9759 L463.5,488.9997 L463.5056,489.1084 L460.7105,489.1652 L457.9355,489.6112 L455.1422,489.7056 L452.3414,489.6529 L449.5469,489.7223 L449.5505,489.8415 L447.1107,489.7387 L444.6878,490.189 L442.2458,490.0138 L439.8117,490.0959 L437.375,490.0934 L437.3714,489.8231 L434.9976,489.9446 L432.6281,490.3918 L430.2525,490.3782 L427.8747,490.1993 L425.5,490.2497 L425.5,490.2497 L425.4981,490.1065 L423.1237,490.1211 L420.746,489.8822 L418.3774,490.3402 L416.0043,490.4533 L413.625,490.0934 L413.6321,490.3273 L411.2,490.3279 L408.7544,489.8842 L406.3231,489.9095 L403.8823,489.6244 L401.4531,489.7223 L401.4597,489.8484 L398.6682,489.6873 L395.8846,489.6784 L393.076,489.1868 L390.2875,489.0845 L387.5,488.9997 L387.5168,489.196 L384.7308,489.0126 L381.8994,488.2961 L379.1208,488.199 L376.3431,488.1126 L373.5469,487.8083 L373.5076,487.5396 L371.1352,487.6082 L368.6947,487.2108 L366.2373,486.6975 L363.8185,486.4489 L361.375,486.0309 L361.5168,486.3221 L358.9391,484.7496 L356.6863,483.8443 L354.3056,482.6763 L351.8975,481.4522 L349.5,480.2497 L349.6253,480.2497 L349.6009,475.1903 L348.9452,470.1309 L349.1437,465.0715 L349.0897,460.0122 L349.5,454.9528" style="stroke:#181818;stroke-width:.5"/><path fill="none" d="M349.5,454.9528 L349.5,454.9528 L349.5409,455.0368 L351.7944,455.9435 L354.2876,457.3425 L356.7028,458.5813 L358.8612,459.2927 L361.375,460.734 L361.37,460.6999 L363.782,460.9019 L366.2191,461.2763 L368.6737,461.7705 L371.0681,461.8519 L373.5469,462.5114 L373.5678,462.7566 L376.3137,462.4706 L379.1206,462.9004 L381.9351,463.4175 L384.7061,463.4265 L387.5,463.7028 L387.5016,463.7331 L390.2899,463.8331 L393.0854,464.0711 L395.8774,464.2425 L398.676,464.5409 L401.4531,464.4254 L401.4622,464.7236 L403.8967,464.8014 L406.3253,464.687 L408.7625,464.854 L411.2001,465.0343 L413.625,464.7965 L413.6208,464.476 L416.004,465.1293 L418.3733,464.7273 L420.7531,465.1275 L423.1221,464.7016 L425.5,464.9528 L425.5,464.9528 L425.4996,464.9224 L427.8793,465.2511 L430.2497,464.8686 L432.6256,464.9058 L435.002,464.9783 L437.375,464.7965 L437.3806,464.9814 L439.8093,464.7206 L442.2476,464.7757 L444.6704,464.3196 L447.1164,464.626 L449.5469,464.4254 L449.5595,464.6688 L452.3477,464.4782 L455.1422,464.4085 L457.9076,463.7774 L460.6944,463.5579 L463.5,463.7028 L463.4765,463.4276 L466.2884,463.4384 L469.0738,463.1392 L471.8976,463.2897 L474.6559,462.6723 L477.4531,462.5114 L477.4311,462.3605 L479.9022,462.2563 L482.2791,461.5072 L484.7229,461.2167 L487.2323,461.3749 L489.625,460.734 L489.7098,460.9081 L492.1429,459.8713 L494.3124,458.293 L496.8121,457.3928 L499.2399,456.345 L501.5,454.9528" style="stroke:#181818;stroke-width:.5"/><text x="359.5" y="481.948" fill="#000" font-family="sans-serif" font-size="14" lengthAdjust="spacing" textLength="132">&quot;base de données&quot;</text></g><g id="elem_appli"><polygon fill="#F1F1F1" points="390.5 331.663 390.55 331.712 392.402 329.565 394.546 327.708 396.594 325.757 398.332 323.495 400.5 321.663 400.5 321.585 410.833 321.236 421.167 321.279 431.5 321.595 441.833 320.971 452.167 322.216 462.5 321.663 462.29 321.663 462.434 328.922 462.644 336.182 462.471 343.441 462.523 350.7 462.5 357.96 462.493 357.952 460.542 360.002 458.556 362.016 456.638 364.098 454.658 366.118 452.5 367.96 452.5 368.639 442.167 368.214 431.833 368.423 421.5 368.662 411.167 367.238 400.833 368.638 390.5 367.96 390.401 367.96 390.678 360.7 390.335 353.441 390.477 346.182 390.747 338.922 390.5 331.663" style="stroke:#181818;stroke-width:.5"/><path fill="#F1F1F1" d="M452.5,331.6628 L452.5661,331.7288 L454.3698,329.5326 L456.5607,327.7235 L458.6256,325.7884 L460.2758,323.4386 L462.5,321.6628" style="stroke:#181818;stroke-width:.5"/><path fill="#F1F1F1" d="M390.5,331.6628 L390.5,331.943 L400.8333,331.1104 L411.1667,331.9205 L421.5,332.1957 L431.8333,330.7116 L442.1667,331.5592 L452.5,331.6628" style="stroke:#181818;stroke-width:.5"/><path fill="#F1F1F1" d="M452.5,331.6628 L452.5934,331.6628 L452.3159,338.9222 L452.5859,346.1815 L452.6776,353.4409 L452.1829,360.7003 L452.5,367.9597" style="stroke:#181818;stroke-width:.5"/><text x="405.5" y="354.658" fill="#000" font-family="sans-serif" font-size="14" lengthAdjust="spacing" textLength="32">appli</text></g><g id="elem_Développeur"><polygon fill="#F1F1F1" points="58.544 122.809 57.371 124.411 55.984 126.758 54.001 128.339 51.916 129.204 50.254 129.279 48.118 128.198 46.102 127.491 44.572 126.056 43.77 124.414 43.294 123.106 42.828 121.398 42.071 119.928 42.653 118.493 43.162 116.92 45.074 115.677 46.419 114.064 48.084 113.528 50.064 113.067 52.602 113.341 53.992 113.996 55.609 114.293 57.574 116.307 58.26 118.433 58.557 119.883 58.22 122.274" style="stroke:#181818;stroke-width:.5"/><path fill="none" d="M50.5,128.8628 L50.6868,128.8628 L50.1317,134.2628 L50.6718,139.6628 L50.8553,145.0628 L49.8659,150.4628 L50.5,155.8628 M37.5,136.8628 L37.5,136.7937 L42.7,136.4837 L47.9,136.5219 L53.1,136.8022 L58.3,136.2482 L63.5,136.8628 M50.5,155.8628 L50.8719,156.1851 L47.4766,158.4959 L45.1672,161.7477 L42.9901,165.1143 L40.0424,167.8129 L37.5,170.8628 M50.5,155.8628 L50.5458,155.9025 L53.0785,158.8442 L55.8199,161.9667 L58.4606,165.002 L61.2934,168.2038 L63.5,170.8628" style="stroke:#181818;stroke-width:.5"/><text x="6" y="185.358" fill="#000" font-family="sans-serif" font-size="14" lengthAdjust="spacing" textLength="89">Développeur</text></g><g id="elem_c"><polygon fill="pink" points="441.5 132.363 441.517 132.431 445.638 133.292 449.86 134.551 454.049 135.681 458.129 136.385 462.36 137.678 462.338 137.664 463.97 140.166 465.71 142.74 467.525 145.365 469.081 147.816 471 150.511 471.153 150.614 469.098 152.96 467.489 155.608 465.935 158.291 464.064 160.762 462.36 163.344 462.365 163.366 458.185 164.397 454.031 165.528 449.863 166.611 445.72 167.786 441.5 168.66 441.555 168.876 437.384 167.816 433.177 166.616 429.022 165.62 424.87 164.634 420.64 163.344 420.441 163.21 419.1 160.904 417.102 158.156 415.604 155.744 413.591 152.986 412 150.511 411.981 150.499 413.933 148.083 415.443 145.369 417.213 142.831 419.006 140.308 420.64 137.678 420.675 137.813 424.812 136.614 429.008 135.645 433.109 134.304 437.351 133.518 441.5 132.363" style="stroke:red;stroke-width:2"/><text x="422" y="155.358" fill="#000" font-family="sans-serif" font-size="14" lengthAdjust="spacing" textLength="39">&quot;.env&quot;</text></g><g id="link_appli_bdd"><path fill="none" d="M426.31,368.2428 L426.5902,368.2451 L425.6747,378.3026 L426.402,388.3735 L426.5943,398.4401 L425.0273,408.4922 L425.792,418.5635 L425.2441,428.624 L425.7299,438.693" style="stroke:#181818;stroke-width:1"/><polygon fill="#181818" points="425.68 444.693 425.744 444.722 426.369 442.842 427.368 441.133 428.246 439.368 428.723 437.421 429.755 435.726 429.736 435.708 428.848 436.418 428.052 437.222 427.319 438.09 426.367 438.735 425.722 439.693 425.853 439.822 424.779 438.739 424.088 438.034 423.444 437.374 422.528 436.446 421.755 435.66 421.776 435.669 422.53 437.462 423.38 439.297 424.183 441.111 425.074 442.964 425.68 444.693" style="stroke:#181818;stroke-width:1"/><text x="426.5" y="411.02" fill="#000" font-family="sans-serif" font-size="13" lengthAdjust="spacing" textLength="103">stocke Données</text></g><g id="link_Développeur_code"><path fill="none" d="M70.61,112.1428 L70.686,112.1971 L72.2179,109.5738 L74.1954,107.2686 L76.0277,104.8599 L77.3828,102.1104 L79.3986,99.8326 L79.3725,99.81 L81.3097,97.332 L83.3787,94.9677 L85.5393,92.6827 L87.3843,90.1248 L89.6713,87.949 L89.8364,88.1314 L91.8261,85.62 L94.2981,83.6412 L96.8288,81.7273 L99.0173,79.4354 L101.3858,77.3423 L101.4022,77.3678 L104.0009,75.6345 L106.6746,74.0171 L109.312,72.3439 L112.0185,70.7773 L114.5,68.8628 L114.5997,69.1439 L117.0747,68.2702 L119.4854,67.2152 L121.9903,66.4256 L124.4995,65.6485 L126.8691,64.4772 L126.8624,64.1567 L128.9746,64.7348 L131.0647,64.2577 L133.1716,64.5827 L135.2612,64.0817 L137.365,64.2578 L137.3608,64.2276 L139.5976,64.8854 L141.7374,64.8386 L143.9344,65.2075 L146.1363,65.6114 L148.3034,65.7634 L148.3141,65.9481 L151.0427,65.9196 L153.7894,66.2066 L156.5067,65.9831 L159.268,66.5211 L162,66.5528 L162.0178,66.7958 L165.0655,66.5263 L168.1221,66.3774 L171.1375,65.6681 L174.1831,65.3696 L177.2554,65.4351 L177.2124,65.1623 L179.9117,64.9898 L182.5626,64.5098 L185.2837,64.4758 L187.8849,63.6804 L190.5573,63.3376 L190.5274,63.1881 L192.9583,62.9598 L195.261,62.0925 L197.6549,61.6795 L200.1379,61.7113 L202.4622,60.9512 L202.4964,61.1418 L204.7327,60.8756 L206.8626,60.0165 L209.1257,59.9 L211.3598,59.6218 L213.5262,58.9665 L213.5089,58.7573 L215.6786,58.7457 L217.8427,58.6656 L220.0178,58.72 L222.1497,58.2511 L224.3058,58.0746 L224.3223,58.2795 L226.4962,58.0075 L228.7021,58.1311 L230.9545,58.8326 L233.1212,58.4702 L235.357,58.9661 L235.4187,59.1837 L237.7579,59.7276 L240.0763,60.1978 L242.4418,60.8343 L244.9161,61.8549 L247.2363,62.3319 L247.1776,62.2125 L250.0053,63.8741 L252.4333,64.7238 L255.3158,66.4966 L257.9424,67.7497 L260.5,68.8628 L260.5685,68.9474 L263.6157,71.3933 L266.9083,74.1422 L269.9792,76.6174 L272.9574,78.9782 L276.0125,81.434 L276.1033,81.5113 L277.2777,82.9349 L278.8736,84.7173 L279.9929,86.0939 L281.3082,87.6374 L282.5591,89.1262 L282.3376,88.9711 L283.5673,90.6737 L285.0637,92.5631 L286.1826,94.1882 L287.1662,95.7185 L288.3375,97.3803 L288.212,97.3114 L290.1254,100.747 L291.8166,104.0606 L294.1188,107.7095 L296.1187,111.1924 L297.7038,114.4478 L297.9197,114.5377 L299.3161,117.7535 L300.3022,120.7984 L301.7213,124.0237 L302.8537,127.1296 L304.34,130.3828" style="stroke:#181818;stroke-width:1"/><text x="163" y="56.93" fill="#000" font-family="sans-serif" font-size="13" lengthAdjust="spacing" textLength="45">Produit</text></g><g id="link_code_Cloud Provider"><path fill="none" d="M309.42,170.6028 L309.5133,170.6072 L309.0186,175.1916 L309.0708,179.8019 L308.9449,184.4037 L308.2333,188.9778 L308.3325,193.5903 L308.298,193.5891 L307.9766,198.5985 L307.8291,203.6136 L307.8027,208.6328 L307.3594,213.6381 L307.5,218.6628 L307.7461,218.6628 L307.2199,222.0628 L307.4121,225.4628 L307.692,228.8628 L307.4619,232.2628 L307.5,235.6628 L307.5302,235.6659 L307.8638,239.3202 L308.3349,242.9888 L308.7396,246.6504 L309.2708,250.3252 L309.3899,253.9573 L309.6854,253.9977 L310.1947,257.6996 L310.5134,261.3755 L311.1111,265.0895 L311.7218,268.8053 L311.9183,272.4645 L311.6019,272.4134 L312.7958,276.0987 L312.9478,279.6156 L313.8919,283.2606 L314.0203,286.7737 L314.8172,290.3949 L314.7873,290.3896 L315.4427,292.1528 L315.3978,293.792 L315.7661,295.5044 L316.1692,297.2229 L316.3219,298.8971 L316.5039,298.9305 L316.4705,299.7152 L316.7481,300.557 L316.5226,301.3065 L317.0474,302.1937 L317.0734,302.9893 L317.3129,303.0344 L317.1209,302.2466 L317.0477,301.4813 L316.4223,300.612 L316.2017,299.8189 L316.3398,299.0933" style="stroke:#181818;stroke-width:1"/><polygon fill="#181818" points="317.447 304.99 317.515 305.006 317.767 303.042 318.418 301.172 318.939 299.271 319.032 297.269 319.717 295.407 319.696 295.392 318.962 296.26 318.335 297.202 317.783 298.195 316.973 299.012 316.524 300.076 316.629 300.228 315.472 299.264 314.619 298.745 313.804 298.279 312.773 297.498 311.855 296.883 311.874 296.896 312.965 298.498 314.141 300.16 315.276 301.793 316.489 303.48 317.447 304.99" style="stroke:#181818;stroke-width:1"/><text x="308.5" y="231.73" fill="#000" font-family="sans-serif" font-size="13" lengthAdjust="spacing" textLength="89">se déploie sur</text></g><g id="link_c_appli"><path fill="none" d="M440.14,168.9128 L440.4194,168.9346 L438.8277,178.6317 L438.8739,188.4566 L438.3867,198.2399 L436.1456,207.8863 L436.2291,217.7141 L435.004,227.4399 L434.2996,237.2062 L433.9573,247.0008 L432.3673,256.698 L433.2608,266.589 L430.9255,276.2281 L430.7389,286.0349 L430.8145,295.862 L429.3647,305.5702 L428.7173,315.341" style="stroke:#181818;stroke-width:1"/><polygon fill="#181818" points="428.25 321.323 428.312 321.356 429.066 319.525 430.182 317.889 431.18 316.19 431.792 314.281 432.939 312.662 432.922 312.642 431.986 313.289 431.136 314.035 430.344 314.85 429.349 315.428 428.639 316.338 428.78 316.458 427.744 315.342 427.119 314.575 426.543 313.852 425.677 312.88 424.963 312.039 424.985 312.046 425.61 313.892 426.334 315.772 427.01 317.636 427.777 319.531 428.25 321.323" style="stroke:#181818;stroke-width:1"/><text x="436.5" y="231.73" fill="#000" font-family="sans-serif" font-size="13" lengthAdjust="spacing" textLength="131">Injection d&apos;identifiant</text></g></g></svg>