<svg xmlns="http://www.w3.org/2000/svg" width="4.76cm" height="4.76cm" preserveAspectRatio="none" version="1.1" viewBox="0 0 45 45"><g id="QRcode"><rect width="45" height="45" x="0" y="0" fill="#fff"/><g id="Pattern" transform="translate(2,2)"><rect width="1" height="1" x="0" y="0" fill="#000"/><rect width="1" height="1" x="1" y="0" fill="#000"/><rect width="1" height="1" x="2" y="0" fill="#000"/><rect width="1" height="1" x="3" y="0" fill="#000"/><rect width="1" height="1" x="4" y="0" fill="#000"/><rect width="1" height="1" x="5" y="0" fill="#000"/><rect width="1" height="1" x="6" y="0" fill="#000"/><rect width="1" height="1" x="8" y="0" fill="#000"/><rect width="1" height="1" x="9" y="0" fill="#000"/><rect width="1" height="1" x="12" y="0" fill="#000"/><rect width="1" height="1" x="13" y="0" fill="#000"/><rect width="1" height="1" x="14" y="0" fill="#000"/><rect width="1" height="1" x="15" y="0" fill="#000"/><rect width="1" height="1" x="16" y="0" fill="#000"/><rect width="1" height="1" x="17" y="0" fill="#000"/><rect width="1" height="1" x="18" y="0" fill="#000"/><rect width="1" height="1" x="19" y="0" fill="#000"/><rect width="1" height="1" x="23" y="0" fill="#000"/><rect width="1" height="1" x="24" y="0" fill="#000"/><rect width="1" height="1" x="30" y="0" fill="#000"/><rect width="1" height="1" x="31" y="0" fill="#000"/><rect width="1" height="1" x="34" y="0" fill="#000"/><rect width="1" height="1" x="35" y="0" fill="#000"/><rect width="1" height="1" x="36" y="0" fill="#000"/><rect width="1" height="1" x="37" y="0" fill="#000"/><rect width="1" height="1" x="38" y="0" fill="#000"/><rect width="1" height="1" x="39" y="0" fill="#000"/><rect width="1" height="1" x="40" y="0" fill="#000"/><rect width="1" height="1" x="0" y="1" fill="#000"/><rect width="1" height="1" x="6" y="1" fill="#000"/><rect width="1" height="1" x="8" y="1" fill="#000"/><rect width="1" height="1" x="9" y="1" fill="#000"/><rect width="1" height="1" x="10" y="1" fill="#000"/><rect width="1" height="1" x="12" y="1" fill="#000"/><rect width="1" height="1" x="13" y="1" fill="#000"/><rect width="1" height="1" x="17" y="1" fill="#000"/><rect width="1" height="1" x="18" y="1" fill="#000"/><rect width="1" height="1" x="19" y="1" fill="#000"/><rect width="1" height="1" x="20" y="1" fill="#000"/><rect width="1" height="1" x="27" y="1" fill="#000"/><rect width="1" height="1" x="28" y="1" fill="#000"/><rect width="1" height="1" x="29" y="1" fill="#000"/><rect width="1" height="1" x="30" y="1" fill="#000"/><rect width="1" height="1" x="32" y="1" fill="#000"/><rect width="1" height="1" x="34" y="1" fill="#000"/><rect width="1" height="1" x="40" y="1" fill="#000"/><rect width="1" height="1" x="0" y="2" fill="#000"/><rect width="1" height="1" x="2" y="2" fill="#000"/><rect width="1" height="1" x="3" y="2" fill="#000"/><rect width="1" height="1" x="4" y="2" fill="#000"/><rect width="1" height="1" x="6" y="2" fill="#000"/><rect width="1" height="1" x="8" y="2" fill="#000"/><rect width="1" height="1" x="13" y="2" fill="#000"/><rect width="1" height="1" x="14" y="2" fill="#000"/><rect width="1" height="1" x="16" y="2" fill="#000"/><rect width="1" height="1" x="17" y="2" fill="#000"/><rect width="1" height="1" x="20" y="2" fill="#000"/><rect width="1" height="1" x="21" y="2" fill="#000"/><rect width="1" height="1" x="28" y="2" fill="#000"/><rect width="1" height="1" x="31" y="2" fill="#000"/><rect width="1" height="1" x="34" y="2" fill="#000"/><rect width="1" height="1" x="36" y="2" fill="#000"/><rect width="1" height="1" x="37" y="2" fill="#000"/><rect width="1" height="1" x="38" y="2" fill="#000"/><rect width="1" height="1" x="40" y="2" fill="#000"/><rect width="1" height="1" x="0" y="3" fill="#000"/><rect width="1" height="1" x="2" y="3" fill="#000"/><rect width="1" height="1" x="3" y="3" fill="#000"/><rect width="1" height="1" x="4" y="3" fill="#000"/><rect width="1" height="1" x="6" y="3" fill="#000"/><rect width="1" height="1" x="10" y="3" fill="#000"/><rect width="1" height="1" x="13" y="3" fill="#000"/><rect width="1" height="1" x="15" y="3" fill="#000"/><rect width="1" height="1" x="16" y="3" fill="#000"/><rect width="1" height="1" x="17" y="3" fill="#000"/><rect width="1" height="1" x="19" y="3" fill="#000"/><rect width="1" height="1" x="21" y="3" fill="#000"/><rect width="1" height="1" x="27" y="3" fill="#000"/><rect width="1" height="1" x="29" y="3" fill="#000"/><rect width="1" height="1" x="34" y="3" fill="#000"/><rect width="1" height="1" x="36" y="3" fill="#000"/><rect width="1" height="1" x="37" y="3" fill="#000"/><rect width="1" height="1" x="38" y="3" fill="#000"/><rect width="1" height="1" x="40" y="3" fill="#000"/><rect width="1" height="1" x="0" y="4" fill="#000"/><rect width="1" height="1" x="2" y="4" fill="#000"/><rect width="1" height="1" x="3" y="4" fill="#000"/><rect width="1" height="1" x="4" y="4" fill="#000"/><rect width="1" height="1" x="6" y="4" fill="#000"/><rect width="1" height="1" x="9" y="4" fill="#000"/><rect width="1" height="1" x="13" y="4" fill="#000"/><rect width="1" height="1" x="19" y="4" fill="#000"/><rect width="1" height="1" x="20" y="4" fill="#000"/><rect width="1" height="1" x="22" y="4" fill="#000"/><rect width="1" height="1" x="23" y="4" fill="#000"/><rect width="1" height="1" x="24" y="4" fill="#000"/><rect width="1" height="1" x="28" y="4" fill="#000"/><rect width="1" height="1" x="31" y="4" fill="#000"/><rect width="1" height="1" x="32" y="4" fill="#000"/><rect width="1" height="1" x="34" y="4" fill="#000"/><rect width="1" height="1" x="36" y="4" fill="#000"/><rect width="1" height="1" x="37" y="4" fill="#000"/><rect width="1" height="1" x="38" y="4" fill="#000"/><rect width="1" height="1" x="40" y="4" fill="#000"/><rect width="1" height="1" x="0" y="5" fill="#000"/><rect width="1" height="1" x="6" y="5" fill="#000"/><rect width="1" height="1" x="8" y="5" fill="#000"/><rect width="1" height="1" x="9" y="5" fill="#000"/><rect width="1" height="1" x="10" y="5" fill="#000"/><rect width="1" height="1" x="11" y="5" fill="#000"/><rect width="1" height="1" x="12" y="5" fill="#000"/><rect width="1" height="1" x="14" y="5" fill="#000"/><rect width="1" height="1" x="16" y="5" fill="#000"/><rect width="1" height="1" x="17" y="5" fill="#000"/><rect width="1" height="1" x="21" y="5" fill="#000"/><rect width="1" height="1" x="25" y="5" fill="#000"/><rect width="1" height="1" x="26" y="5" fill="#000"/><rect width="1" height="1" x="27" y="5" fill="#000"/><rect width="1" height="1" x="28" y="5" fill="#000"/><rect width="1" height="1" x="30" y="5" fill="#000"/><rect width="1" height="1" x="34" y="5" fill="#000"/><rect width="1" height="1" x="40" y="5" fill="#000"/><rect width="1" height="1" x="0" y="6" fill="#000"/><rect width="1" height="1" x="1" y="6" fill="#000"/><rect width="1" height="1" x="2" y="6" fill="#000"/><rect width="1" height="1" x="3" y="6" fill="#000"/><rect width="1" height="1" x="4" y="6" fill="#000"/><rect width="1" height="1" x="5" y="6" fill="#000"/><rect width="1" height="1" x="6" y="6" fill="#000"/><rect width="1" height="1" x="8" y="6" fill="#000"/><rect width="1" height="1" x="10" y="6" fill="#000"/><rect width="1" height="1" x="12" y="6" fill="#000"/><rect width="1" height="1" x="14" y="6" fill="#000"/><rect width="1" height="1" x="16" y="6" fill="#000"/><rect width="1" height="1" x="18" y="6" fill="#000"/><rect width="1" height="1" x="20" y="6" fill="#000"/><rect width="1" height="1" x="22" y="6" fill="#000"/><rect width="1" height="1" x="24" y="6" fill="#000"/><rect width="1" height="1" x="26" y="6" fill="#000"/><rect width="1" height="1" x="28" y="6" fill="#000"/><rect width="1" height="1" x="30" y="6" fill="#000"/><rect width="1" height="1" x="32" y="6" fill="#000"/><rect width="1" height="1" x="34" y="6" fill="#000"/><rect width="1" height="1" x="35" y="6" fill="#000"/><rect width="1" height="1" x="36" y="6" fill="#000"/><rect width="1" height="1" x="37" y="6" fill="#000"/><rect width="1" height="1" x="38" y="6" fill="#000"/><rect width="1" height="1" x="39" y="6" fill="#000"/><rect width="1" height="1" x="40" y="6" fill="#000"/><rect width="1" height="1" x="8" y="7" fill="#000"/><rect width="1" height="1" x="10" y="7" fill="#000"/><rect width="1" height="1" x="12" y="7" fill="#000"/><rect width="1" height="1" x="14" y="7" fill="#000"/><rect width="1" height="1" x="15" y="7" fill="#000"/><rect width="1" height="1" x="17" y="7" fill="#000"/><rect width="1" height="1" x="19" y="7" fill="#000"/><rect width="1" height="1" x="20" y="7" fill="#000"/><rect width="1" height="1" x="22" y="7" fill="#000"/><rect width="1" height="1" x="25" y="7" fill="#000"/><rect width="1" height="1" x="28" y="7" fill="#000"/><rect width="1" height="1" x="31" y="7" fill="#000"/><rect width="1" height="1" x="32" y="7" fill="#000"/><rect width="1" height="1" x="2" y="8" fill="#000"/><rect width="1" height="1" x="3" y="8" fill="#000"/><rect width="1" height="1" x="4" y="8" fill="#000"/><rect width="1" height="1" x="6" y="8" fill="#000"/><rect width="1" height="1" x="8" y="8" fill="#000"/><rect width="1" height="1" x="9" y="8" fill="#000"/><rect width="1" height="1" x="14" y="8" fill="#000"/><rect width="1" height="1" x="16" y="8" fill="#000"/><rect width="1" height="1" x="17" y="8" fill="#000"/><rect width="1" height="1" x="18" y="8" fill="#000"/><rect width="1" height="1" x="19" y="8" fill="#000"/><rect width="1" height="1" x="20" y="8" fill="#000"/><rect width="1" height="1" x="21" y="8" fill="#000"/><rect width="1" height="1" x="22" y="8" fill="#000"/><rect width="1" height="1" x="23" y="8" fill="#000"/><rect width="1" height="1" x="24" y="8" fill="#000"/><rect width="1" height="1" x="25" y="8" fill="#000"/><rect width="1" height="1" x="26" y="8" fill="#000"/><rect width="1" height="1" x="29" y="8" fill="#000"/><rect width="1" height="1" x="33" y="8" fill="#000"/><rect width="1" height="1" x="34" y="8" fill="#000"/><rect width="1" height="1" x="35" y="8" fill="#000"/><rect width="1" height="1" x="38" y="8" fill="#000"/><rect width="1" height="1" x="39" y="8" fill="#000"/><rect width="1" height="1" x="40" y="8" fill="#000"/><rect width="1" height="1" x="0" y="9" fill="#000"/><rect width="1" height="1" x="1" y="9" fill="#000"/><rect width="1" height="1" x="2" y="9" fill="#000"/><rect width="1" height="1" x="3" y="9" fill="#000"/><rect width="1" height="1" x="4" y="9" fill="#000"/><rect width="1" height="1" x="5" y="9" fill="#000"/><rect width="1" height="1" x="11" y="9" fill="#000"/><rect width="1" height="1" x="12" y="9" fill="#000"/><rect width="1" height="1" x="16" y="9" fill="#000"/><rect width="1" height="1" x="19" y="9" fill="#000"/><rect width="1" height="1" x="21" y="9" fill="#000"/><rect width="1" height="1" x="23" y="9" fill="#000"/><rect width="1" height="1" x="25" y="9" fill="#000"/><rect width="1" height="1" x="26" y="9" fill="#000"/><rect width="1" height="1" x="28" y="9" fill="#000"/><rect width="1" height="1" x="31" y="9" fill="#000"/><rect width="1" height="1" x="32" y="9" fill="#000"/><rect width="1" height="1" x="33" y="9" fill="#000"/><rect width="1" height="1" x="34" y="9" fill="#000"/><rect width="1" height="1" x="35" y="9" fill="#000"/><rect width="1" height="1" x="36" y="9" fill="#000"/><rect width="1" height="1" x="38" y="9" fill="#000"/><rect width="1" height="1" x="39" y="9" fill="#000"/><rect width="1" height="1" x="1" y="10" fill="#000"/><rect width="1" height="1" x="2" y="10" fill="#000"/><rect width="1" height="1" x="3" y="10" fill="#000"/><rect width="1" height="1" x="5" y="10" fill="#000"/><rect width="1" height="1" x="6" y="10" fill="#000"/><rect width="1" height="1" x="7" y="10" fill="#000"/><rect width="1" height="1" x="8" y="10" fill="#000"/><rect width="1" height="1" x="10" y="10" fill="#000"/><rect width="1" height="1" x="19" y="10" fill="#000"/><rect width="1" height="1" x="20" y="10" fill="#000"/><rect width="1" height="1" x="21" y="10" fill="#000"/><rect width="1" height="1" x="27" y="10" fill="#000"/><rect width="1" height="1" x="32" y="10" fill="#000"/><rect width="1" height="1" x="36" y="10" fill="#000"/><rect width="1" height="1" x="0" y="11" fill="#000"/><rect width="1" height="1" x="3" y="11" fill="#000"/><rect width="1" height="1" x="4" y="11" fill="#000"/><rect width="1" height="1" x="5" y="11" fill="#000"/><rect width="1" height="1" x="9" y="11" fill="#000"/><rect width="1" height="1" x="11" y="11" fill="#000"/><rect width="1" height="1" x="13" y="11" fill="#000"/><rect width="1" height="1" x="14" y="11" fill="#000"/><rect width="1" height="1" x="15" y="11" fill="#000"/><rect width="1" height="1" x="18" y="11" fill="#000"/><rect width="1" height="1" x="19" y="11" fill="#000"/><rect width="1" height="1" x="20" y="11" fill="#000"/><rect width="1" height="1" x="21" y="11" fill="#000"/><rect width="1" height="1" x="22" y="11" fill="#000"/><rect width="1" height="1" x="26" y="11" fill="#000"/><rect width="1" height="1" x="28" y="11" fill="#000"/><rect width="1" height="1" x="31" y="11" fill="#000"/><rect width="1" height="1" x="32" y="11" fill="#000"/><rect width="1" height="1" x="33" y="11" fill="#000"/><rect width="1" height="1" x="34" y="11" fill="#000"/><rect width="1" height="1" x="37" y="11" fill="#000"/><rect width="1" height="1" x="40" y="11" fill="#000"/><rect width="1" height="1" x="0" y="12" fill="#000"/><rect width="1" height="1" x="1" y="12" fill="#000"/><rect width="1" height="1" x="4" y="12" fill="#000"/><rect width="1" height="1" x="6" y="12" fill="#000"/><rect width="1" height="1" x="9" y="12" fill="#000"/><rect width="1" height="1" x="20" y="12" fill="#000"/><rect width="1" height="1" x="21" y="12" fill="#000"/><rect width="1" height="1" x="22" y="12" fill="#000"/><rect width="1" height="1" x="24" y="12" fill="#000"/><rect width="1" height="1" x="25" y="12" fill="#000"/><rect width="1" height="1" x="26" y="12" fill="#000"/><rect width="1" height="1" x="27" y="12" fill="#000"/><rect width="1" height="1" x="29" y="12" fill="#000"/><rect width="1" height="1" x="31" y="12" fill="#000"/><rect width="1" height="1" x="33" y="12" fill="#000"/><rect width="1" height="1" x="37" y="12" fill="#000"/><rect width="1" height="1" x="38" y="12" fill="#000"/><rect width="1" height="1" x="2" y="13" fill="#000"/><rect width="1" height="1" x="3" y="13" fill="#000"/><rect width="1" height="1" x="8" y="13" fill="#000"/><rect width="1" height="1" x="9" y="13" fill="#000"/><rect width="1" height="1" x="10" y="13" fill="#000"/><rect width="1" height="1" x="12" y="13" fill="#000"/><rect width="1" height="1" x="13" y="13" fill="#000"/><rect width="1" height="1" x="14" y="13" fill="#000"/><rect width="1" height="1" x="15" y="13" fill="#000"/><rect width="1" height="1" x="16" y="13" fill="#000"/><rect width="1" height="1" x="18" y="13" fill="#000"/><rect width="1" height="1" x="20" y="13" fill="#000"/><rect width="1" height="1" x="21" y="13" fill="#000"/><rect width="1" height="1" x="22" y="13" fill="#000"/><rect width="1" height="1" x="24" y="13" fill="#000"/><rect width="1" height="1" x="27" y="13" fill="#000"/><rect width="1" height="1" x="28" y="13" fill="#000"/><rect width="1" height="1" x="30" y="13" fill="#000"/><rect width="1" height="1" x="35" y="13" fill="#000"/><rect width="1" height="1" x="36" y="13" fill="#000"/><rect width="1" height="1" x="38" y="13" fill="#000"/><rect width="1" height="1" x="40" y="13" fill="#000"/><rect width="1" height="1" x="1" y="14" fill="#000"/><rect width="1" height="1" x="2" y="14" fill="#000"/><rect width="1" height="1" x="4" y="14" fill="#000"/><rect width="1" height="1" x="5" y="14" fill="#000"/><rect width="1" height="1" x="6" y="14" fill="#000"/><rect width="1" height="1" x="8" y="14" fill="#000"/><rect width="1" height="1" x="9" y="14" fill="#000"/><rect width="1" height="1" x="14" y="14" fill="#000"/><rect width="1" height="1" x="15" y="14" fill="#000"/><rect width="1" height="1" x="17" y="14" fill="#000"/><rect width="1" height="1" x="19" y="14" fill="#000"/><rect width="1" height="1" x="22" y="14" fill="#000"/><rect width="1" height="1" x="24" y="14" fill="#000"/><rect width="1" height="1" x="25" y="14" fill="#000"/><rect width="1" height="1" x="26" y="14" fill="#000"/><rect width="1" height="1" x="27" y="14" fill="#000"/><rect width="1" height="1" x="28" y="14" fill="#000"/><rect width="1" height="1" x="29" y="14" fill="#000"/><rect width="1" height="1" x="30" y="14" fill="#000"/><rect width="1" height="1" x="33" y="14" fill="#000"/><rect width="1" height="1" x="35" y="14" fill="#000"/><rect width="1" height="1" x="36" y="14" fill="#000"/><rect width="1" height="1" x="3" y="15" fill="#000"/><rect width="1" height="1" x="5" y="15" fill="#000"/><rect width="1" height="1" x="7" y="15" fill="#000"/><rect width="1" height="1" x="8" y="15" fill="#000"/><rect width="1" height="1" x="10" y="15" fill="#000"/><rect width="1" height="1" x="12" y="15" fill="#000"/><rect width="1" height="1" x="13" y="15" fill="#000"/><rect width="1" height="1" x="16" y="15" fill="#000"/><rect width="1" height="1" x="17" y="15" fill="#000"/><rect width="1" height="1" x="19" y="15" fill="#000"/><rect width="1" height="1" x="21" y="15" fill="#000"/><rect width="1" height="1" x="23" y="15" fill="#000"/><rect width="1" height="1" x="24" y="15" fill="#000"/><rect width="1" height="1" x="26" y="15" fill="#000"/><rect width="1" height="1" x="27" y="15" fill="#000"/><rect width="1" height="1" x="28" y="15" fill="#000"/><rect width="1" height="1" x="31" y="15" fill="#000"/><rect width="1" height="1" x="34" y="15" fill="#000"/><rect width="1" height="1" x="37" y="15" fill="#000"/><rect width="1" height="1" x="0" y="16" fill="#000"/><rect width="1" height="1" x="1" y="16" fill="#000"/><rect width="1" height="1" x="2" y="16" fill="#000"/><rect width="1" height="1" x="3" y="16" fill="#000"/><rect width="1" height="1" x="6" y="16" fill="#000"/><rect width="1" height="1" x="9" y="16" fill="#000"/><rect width="1" height="1" x="14" y="16" fill="#000"/><rect width="1" height="1" x="15" y="16" fill="#000"/><rect width="1" height="1" x="17" y="16" fill="#000"/><rect width="1" height="1" x="18" y="16" fill="#000"/><rect width="1" height="1" x="19" y="16" fill="#000"/><rect width="1" height="1" x="22" y="16" fill="#000"/><rect width="1" height="1" x="25" y="16" fill="#000"/><rect width="1" height="1" x="26" y="16" fill="#000"/><rect width="1" height="1" x="27" y="16" fill="#000"/><rect width="1" height="1" x="28" y="16" fill="#000"/><rect width="1" height="1" x="30" y="16" fill="#000"/><rect width="1" height="1" x="33" y="16" fill="#000"/><rect width="1" height="1" x="35" y="16" fill="#000"/><rect width="1" height="1" x="37" y="16" fill="#000"/><rect width="1" height="1" x="38" y="16" fill="#000"/><rect width="1" height="1" x="1" y="17" fill="#000"/><rect width="1" height="1" x="4" y="17" fill="#000"/><rect width="1" height="1" x="7" y="17" fill="#000"/><rect width="1" height="1" x="8" y="17" fill="#000"/><rect width="1" height="1" x="9" y="17" fill="#000"/><rect width="1" height="1" x="12" y="17" fill="#000"/><rect width="1" height="1" x="15" y="17" fill="#000"/><rect width="1" height="1" x="17" y="17" fill="#000"/><rect width="1" height="1" x="21" y="17" fill="#000"/><rect width="1" height="1" x="25" y="17" fill="#000"/><rect width="1" height="1" x="28" y="17" fill="#000"/><rect width="1" height="1" x="29" y="17" fill="#000"/><rect width="1" height="1" x="30" y="17" fill="#000"/><rect width="1" height="1" x="31" y="17" fill="#000"/><rect width="1" height="1" x="32" y="17" fill="#000"/><rect width="1" height="1" x="34" y="17" fill="#000"/><rect width="1" height="1" x="35" y="17" fill="#000"/><rect width="1" height="1" x="36" y="17" fill="#000"/><rect width="1" height="1" x="37" y="17" fill="#000"/><rect width="1" height="1" x="40" y="17" fill="#000"/><rect width="1" height="1" x="0" y="18" fill="#000"/><rect width="1" height="1" x="2" y="18" fill="#000"/><rect width="1" height="1" x="3" y="18" fill="#000"/><rect width="1" height="1" x="4" y="18" fill="#000"/><rect width="1" height="1" x="5" y="18" fill="#000"/><rect width="1" height="1" x="6" y="18" fill="#000"/><rect width="1" height="1" x="7" y="18" fill="#000"/><rect width="1" height="1" x="9" y="18" fill="#000"/><rect width="1" height="1" x="10" y="18" fill="#000"/><rect width="1" height="1" x="14" y="18" fill="#000"/><rect width="1" height="1" x="15" y="18" fill="#000"/><rect width="1" height="1" x="16" y="18" fill="#000"/><rect width="1" height="1" x="17" y="18" fill="#000"/><rect width="1" height="1" x="19" y="18" fill="#000"/><rect width="1" height="1" x="21" y="18" fill="#000"/><rect width="1" height="1" x="23" y="18" fill="#000"/><rect width="1" height="1" x="25" y="18" fill="#000"/><rect width="1" height="1" x="26" y="18" fill="#000"/><rect width="1" height="1" x="30" y="18" fill="#000"/><rect width="1" height="1" x="31" y="18" fill="#000"/><rect width="1" height="1" x="34" y="18" fill="#000"/><rect width="1" height="1" x="36" y="18" fill="#000"/><rect width="1" height="1" x="38" y="18" fill="#000"/><rect width="1" height="1" x="1" y="19" fill="#000"/><rect width="1" height="1" x="5" y="19" fill="#000"/><rect width="1" height="1" x="8" y="19" fill="#000"/><rect width="1" height="1" x="10" y="19" fill="#000"/><rect width="1" height="1" x="12" y="19" fill="#000"/><rect width="1" height="1" x="16" y="19" fill="#000"/><rect width="1" height="1" x="19" y="19" fill="#000"/><rect width="1" height="1" x="21" y="19" fill="#000"/><rect width="1" height="1" x="22" y="19" fill="#000"/><rect width="1" height="1" x="24" y="19" fill="#000"/><rect width="1" height="1" x="26" y="19" fill="#000"/><rect width="1" height="1" x="33" y="19" fill="#000"/><rect width="1" height="1" x="34" y="19" fill="#000"/><rect width="1" height="1" x="36" y="19" fill="#000"/><rect width="1" height="1" x="37" y="19" fill="#000"/><rect width="1" height="1" x="39" y="19" fill="#000"/><rect width="1" height="1" x="2" y="20" fill="#000"/><rect width="1" height="1" x="5" y="20" fill="#000"/><rect width="1" height="1" x="6" y="20" fill="#000"/><rect width="1" height="1" x="7" y="20" fill="#000"/><rect width="1" height="1" x="11" y="20" fill="#000"/><rect width="1" height="1" x="12" y="20" fill="#000"/><rect width="1" height="1" x="13" y="20" fill="#000"/><rect width="1" height="1" x="14" y="20" fill="#000"/><rect width="1" height="1" x="15" y="20" fill="#000"/><rect width="1" height="1" x="16" y="20" fill="#000"/><rect width="1" height="1" x="19" y="20" fill="#000"/><rect width="1" height="1" x="20" y="20" fill="#000"/><rect width="1" height="1" x="21" y="20" fill="#000"/><rect width="1" height="1" x="23" y="20" fill="#000"/><rect width="1" height="1" x="24" y="20" fill="#000"/><rect width="1" height="1" x="26" y="20" fill="#000"/><rect width="1" height="1" x="27" y="20" fill="#000"/><rect width="1" height="1" x="30" y="20" fill="#000"/><rect width="1" height="1" x="32" y="20" fill="#000"/><rect width="1" height="1" x="33" y="20" fill="#000"/><rect width="1" height="1" x="36" y="20" fill="#000"/><rect width="1" height="1" x="38" y="20" fill="#000"/><rect width="1" height="1" x="39" y="20" fill="#000"/><rect width="1" height="1" x="40" y="20" fill="#000"/><rect width="1" height="1" x="0" y="21" fill="#000"/><rect width="1" height="1" x="3" y="21" fill="#000"/><rect width="1" height="1" x="4" y="21" fill="#000"/><rect width="1" height="1" x="5" y="21" fill="#000"/><rect width="1" height="1" x="12" y="21" fill="#000"/><rect width="1" height="1" x="13" y="21" fill="#000"/><rect width="1" height="1" x="14" y="21" fill="#000"/><rect width="1" height="1" x="15" y="21" fill="#000"/><rect width="1" height="1" x="16" y="21" fill="#000"/><rect width="1" height="1" x="17" y="21" fill="#000"/><rect width="1" height="1" x="19" y="21" fill="#000"/><rect width="1" height="1" x="21" y="21" fill="#000"/><rect width="1" height="1" x="22" y="21" fill="#000"/><rect width="1" height="1" x="23" y="21" fill="#000"/><rect width="1" height="1" x="25" y="21" fill="#000"/><rect width="1" height="1" x="26" y="21" fill="#000"/><rect width="1" height="1" x="31" y="21" fill="#000"/><rect width="1" height="1" x="32" y="21" fill="#000"/><rect width="1" height="1" x="33" y="21" fill="#000"/><rect width="1" height="1" x="34" y="21" fill="#000"/><rect width="1" height="1" x="35" y="21" fill="#000"/><rect width="1" height="1" x="36" y="21" fill="#000"/><rect width="1" height="1" x="37" y="21" fill="#000"/><rect width="1" height="1" x="39" y="21" fill="#000"/><rect width="1" height="1" x="40" y="21" fill="#000"/><rect width="1" height="1" x="1" y="22" fill="#000"/><rect width="1" height="1" x="3" y="22" fill="#000"/><rect width="1" height="1" x="4" y="22" fill="#000"/><rect width="1" height="1" x="5" y="22" fill="#000"/><rect width="1" height="1" x="6" y="22" fill="#000"/><rect width="1" height="1" x="7" y="22" fill="#000"/><rect width="1" height="1" x="10" y="22" fill="#000"/><rect width="1" height="1" x="11" y="22" fill="#000"/><rect width="1" height="1" x="13" y="22" fill="#000"/><rect width="1" height="1" x="17" y="22" fill="#000"/><rect width="1" height="1" x="19" y="22" fill="#000"/><rect width="1" height="1" x="25" y="22" fill="#000"/><rect width="1" height="1" x="27" y="22" fill="#000"/><rect width="1" height="1" x="28" y="22" fill="#000"/><rect width="1" height="1" x="30" y="22" fill="#000"/><rect width="1" height="1" x="32" y="22" fill="#000"/><rect width="1" height="1" x="35" y="22" fill="#000"/><rect width="1" height="1" x="38" y="22" fill="#000"/><rect width="1" height="1" x="1" y="23" fill="#000"/><rect width="1" height="1" x="2" y="23" fill="#000"/><rect width="1" height="1" x="4" y="23" fill="#000"/><rect width="1" height="1" x="5" y="23" fill="#000"/><rect width="1" height="1" x="7" y="23" fill="#000"/><rect width="1" height="1" x="9" y="23" fill="#000"/><rect width="1" height="1" x="10" y="23" fill="#000"/><rect width="1" height="1" x="15" y="23" fill="#000"/><rect width="1" height="1" x="17" y="23" fill="#000"/><rect width="1" height="1" x="18" y="23" fill="#000"/><rect width="1" height="1" x="19" y="23" fill="#000"/><rect width="1" height="1" x="22" y="23" fill="#000"/><rect width="1" height="1" x="24" y="23" fill="#000"/><rect width="1" height="1" x="26" y="23" fill="#000"/><rect width="1" height="1" x="30" y="23" fill="#000"/><rect width="1" height="1" x="32" y="23" fill="#000"/><rect width="1" height="1" x="33" y="23" fill="#000"/><rect width="1" height="1" x="34" y="23" fill="#000"/><rect width="1" height="1" x="35" y="23" fill="#000"/><rect width="1" height="1" x="36" y="23" fill="#000"/><rect width="1" height="1" x="37" y="23" fill="#000"/><rect width="1" height="1" x="39" y="23" fill="#000"/><rect width="1" height="1" x="0" y="24" fill="#000"/><rect width="1" height="1" x="1" y="24" fill="#000"/><rect width="1" height="1" x="2" y="24" fill="#000"/><rect width="1" height="1" x="3" y="24" fill="#000"/><rect width="1" height="1" x="4" y="24" fill="#000"/><rect width="1" height="1" x="6" y="24" fill="#000"/><rect width="1" height="1" x="7" y="24" fill="#000"/><rect width="1" height="1" x="9" y="24" fill="#000"/><rect width="1" height="1" x="10" y="24" fill="#000"/><rect width="1" height="1" x="15" y="24" fill="#000"/><rect width="1" height="1" x="16" y="24" fill="#000"/><rect width="1" height="1" x="17" y="24" fill="#000"/><rect width="1" height="1" x="20" y="24" fill="#000"/><rect width="1" height="1" x="23" y="24" fill="#000"/><rect width="1" height="1" x="24" y="24" fill="#000"/><rect width="1" height="1" x="27" y="24" fill="#000"/><rect width="1" height="1" x="28" y="24" fill="#000"/><rect width="1" height="1" x="29" y="24" fill="#000"/><rect width="1" height="1" x="35" y="24" fill="#000"/><rect width="1" height="1" x="37" y="24" fill="#000"/><rect width="1" height="1" x="5" y="25" fill="#000"/><rect width="1" height="1" x="9" y="25" fill="#000"/><rect width="1" height="1" x="11" y="25" fill="#000"/><rect width="1" height="1" x="13" y="25" fill="#000"/><rect width="1" height="1" x="14" y="25" fill="#000"/><rect width="1" height="1" x="16" y="25" fill="#000"/><rect width="1" height="1" x="17" y="25" fill="#000"/><rect width="1" height="1" x="20" y="25" fill="#000"/><rect width="1" height="1" x="21" y="25" fill="#000"/><rect width="1" height="1" x="24" y="25" fill="#000"/><rect width="1" height="1" x="26" y="25" fill="#000"/><rect width="1" height="1" x="28" y="25" fill="#000"/><rect width="1" height="1" x="29" y="25" fill="#000"/><rect width="1" height="1" x="31" y="25" fill="#000"/><rect width="1" height="1" x="34" y="25" fill="#000"/><rect width="1" height="1" x="35" y="25" fill="#000"/><rect width="1" height="1" x="36" y="25" fill="#000"/><rect width="1" height="1" x="37" y="25" fill="#000"/><rect width="1" height="1" x="0" y="26" fill="#000"/><rect width="1" height="1" x="3" y="26" fill="#000"/><rect width="1" height="1" x="5" y="26" fill="#000"/><rect width="1" height="1" x="6" y="26" fill="#000"/><rect width="1" height="1" x="7" y="26" fill="#000"/><rect width="1" height="1" x="8" y="26" fill="#000"/><rect width="1" height="1" x="9" y="26" fill="#000"/><rect width="1" height="1" x="11" y="26" fill="#000"/><rect width="1" height="1" x="12" y="26" fill="#000"/><rect width="1" height="1" x="14" y="26" fill="#000"/><rect width="1" height="1" x="15" y="26" fill="#000"/><rect width="1" height="1" x="16" y="26" fill="#000"/><rect width="1" height="1" x="21" y="26" fill="#000"/><rect width="1" height="1" x="22" y="26" fill="#000"/><rect width="1" height="1" x="23" y="26" fill="#000"/><rect width="1" height="1" x="24" y="26" fill="#000"/><rect width="1" height="1" x="25" y="26" fill="#000"/><rect width="1" height="1" x="27" y="26" fill="#000"/><rect width="1" height="1" x="29" y="26" fill="#000"/><rect width="1" height="1" x="32" y="26" fill="#000"/><rect width="1" height="1" x="36" y="26" fill="#000"/><rect width="1" height="1" x="39" y="26" fill="#000"/><rect width="1" height="1" x="1" y="27" fill="#000"/><rect width="1" height="1" x="2" y="27" fill="#000"/><rect width="1" height="1" x="3" y="27" fill="#000"/><rect width="1" height="1" x="5" y="27" fill="#000"/><rect width="1" height="1" x="9" y="27" fill="#000"/><rect width="1" height="1" x="11" y="27" fill="#000"/><rect width="1" height="1" x="12" y="27" fill="#000"/><rect width="1" height="1" x="16" y="27" fill="#000"/><rect width="1" height="1" x="20" y="27" fill="#000"/><rect width="1" height="1" x="28" y="27" fill="#000"/><rect width="1" height="1" x="30" y="27" fill="#000"/><rect width="1" height="1" x="31" y="27" fill="#000"/><rect width="1" height="1" x="32" y="27" fill="#000"/><rect width="1" height="1" x="33" y="27" fill="#000"/><rect width="1" height="1" x="34" y="27" fill="#000"/><rect width="1" height="1" x="37" y="27" fill="#000"/><rect width="1" height="1" x="39" y="27" fill="#000"/><rect width="1" height="1" x="40" y="27" fill="#000"/><rect width="1" height="1" x="1" y="28" fill="#000"/><rect width="1" height="1" x="2" y="28" fill="#000"/><rect width="1" height="1" x="4" y="28" fill="#000"/><rect width="1" height="1" x="5" y="28" fill="#000"/><rect width="1" height="1" x="6" y="28" fill="#000"/><rect width="1" height="1" x="7" y="28" fill="#000"/><rect width="1" height="1" x="8" y="28" fill="#000"/><rect width="1" height="1" x="9" y="28" fill="#000"/><rect width="1" height="1" x="10" y="28" fill="#000"/><rect width="1" height="1" x="12" y="28" fill="#000"/><rect width="1" height="1" x="16" y="28" fill="#000"/><rect width="1" height="1" x="19" y="28" fill="#000"/><rect width="1" height="1" x="20" y="28" fill="#000"/><rect width="1" height="1" x="23" y="28" fill="#000"/><rect width="1" height="1" x="26" y="28" fill="#000"/><rect width="1" height="1" x="29" y="28" fill="#000"/><rect width="1" height="1" x="31" y="28" fill="#000"/><rect width="1" height="1" x="32" y="28" fill="#000"/><rect width="1" height="1" x="34" y="28" fill="#000"/><rect width="1" height="1" x="37" y="28" fill="#000"/><rect width="1" height="1" x="38" y="28" fill="#000"/><rect width="1" height="1" x="0" y="29" fill="#000"/><rect width="1" height="1" x="3" y="29" fill="#000"/><rect width="1" height="1" x="5" y="29" fill="#000"/><rect width="1" height="1" x="8" y="29" fill="#000"/><rect width="1" height="1" x="11" y="29" fill="#000"/><rect width="1" height="1" x="12" y="29" fill="#000"/><rect width="1" height="1" x="13" y="29" fill="#000"/><rect width="1" height="1" x="14" y="29" fill="#000"/><rect width="1" height="1" x="16" y="29" fill="#000"/><rect width="1" height="1" x="18" y="29" fill="#000"/><rect width="1" height="1" x="19" y="29" fill="#000"/><rect width="1" height="1" x="20" y="29" fill="#000"/><rect width="1" height="1" x="21" y="29" fill="#000"/><rect width="1" height="1" x="22" y="29" fill="#000"/><rect width="1" height="1" x="26" y="29" fill="#000"/><rect width="1" height="1" x="28" y="29" fill="#000"/><rect width="1" height="1" x="31" y="29" fill="#000"/><rect width="1" height="1" x="33" y="29" fill="#000"/><rect width="1" height="1" x="35" y="29" fill="#000"/><rect width="1" height="1" x="36" y="29" fill="#000"/><rect width="1" height="1" x="39" y="29" fill="#000"/><rect width="1" height="1" x="40" y="29" fill="#000"/><rect width="1" height="1" x="0" y="30" fill="#000"/><rect width="1" height="1" x="2" y="30" fill="#000"/><rect width="1" height="1" x="4" y="30" fill="#000"/><rect width="1" height="1" x="5" y="30" fill="#000"/><rect width="1" height="1" x="6" y="30" fill="#000"/><rect width="1" height="1" x="9" y="30" fill="#000"/><rect width="1" height="1" x="10" y="30" fill="#000"/><rect width="1" height="1" x="11" y="30" fill="#000"/><rect width="1" height="1" x="13" y="30" fill="#000"/><rect width="1" height="1" x="15" y="30" fill="#000"/><rect width="1" height="1" x="16" y="30" fill="#000"/><rect width="1" height="1" x="18" y="30" fill="#000"/><rect width="1" height="1" x="19" y="30" fill="#000"/><rect width="1" height="1" x="20" y="30" fill="#000"/><rect width="1" height="1" x="21" y="30" fill="#000"/><rect width="1" height="1" x="22" y="30" fill="#000"/><rect width="1" height="1" x="23" y="30" fill="#000"/><rect width="1" height="1" x="24" y="30" fill="#000"/><rect width="1" height="1" x="25" y="30" fill="#000"/><rect width="1" height="1" x="26" y="30" fill="#000"/><rect width="1" height="1" x="27" y="30" fill="#000"/><rect width="1" height="1" x="29" y="30" fill="#000"/><rect width="1" height="1" x="30" y="30" fill="#000"/><rect width="1" height="1" x="31" y="30" fill="#000"/><rect width="1" height="1" x="33" y="30" fill="#000"/><rect width="1" height="1" x="34" y="30" fill="#000"/><rect width="1" height="1" x="38" y="30" fill="#000"/><rect width="1" height="1" x="0" y="31" fill="#000"/><rect width="1" height="1" x="3" y="31" fill="#000"/><rect width="1" height="1" x="4" y="31" fill="#000"/><rect width="1" height="1" x="8" y="31" fill="#000"/><rect width="1" height="1" x="9" y="31" fill="#000"/><rect width="1" height="1" x="10" y="31" fill="#000"/><rect width="1" height="1" x="11" y="31" fill="#000"/><rect width="1" height="1" x="14" y="31" fill="#000"/><rect width="1" height="1" x="16" y="31" fill="#000"/><rect width="1" height="1" x="17" y="31" fill="#000"/><rect width="1" height="1" x="18" y="31" fill="#000"/><rect width="1" height="1" x="21" y="31" fill="#000"/><rect width="1" height="1" x="24" y="31" fill="#000"/><rect width="1" height="1" x="31" y="31" fill="#000"/><rect width="1" height="1" x="32" y="31" fill="#000"/><rect width="1" height="1" x="33" y="31" fill="#000"/><rect width="1" height="1" x="34" y="31" fill="#000"/><rect width="1" height="1" x="35" y="31" fill="#000"/><rect width="1" height="1" x="39" y="31" fill="#000"/><rect width="1" height="1" x="0" y="32" fill="#000"/><rect width="1" height="1" x="2" y="32" fill="#000"/><rect width="1" height="1" x="4" y="32" fill="#000"/><rect width="1" height="1" x="6" y="32" fill="#000"/><rect width="1" height="1" x="8" y="32" fill="#000"/><rect width="1" height="1" x="9" y="32" fill="#000"/><rect width="1" height="1" x="10" y="32" fill="#000"/><rect width="1" height="1" x="17" y="32" fill="#000"/><rect width="1" height="1" x="20" y="32" fill="#000"/><rect width="1" height="1" x="21" y="32" fill="#000"/><rect width="1" height="1" x="22" y="32" fill="#000"/><rect width="1" height="1" x="23" y="32" fill="#000"/><rect width="1" height="1" x="29" y="32" fill="#000"/><rect width="1" height="1" x="30" y="32" fill="#000"/><rect width="1" height="1" x="32" y="32" fill="#000"/><rect width="1" height="1" x="33" y="32" fill="#000"/><rect width="1" height="1" x="34" y="32" fill="#000"/><rect width="1" height="1" x="35" y="32" fill="#000"/><rect width="1" height="1" x="36" y="32" fill="#000"/><rect width="1" height="1" x="38" y="32" fill="#000"/><rect width="1" height="1" x="8" y="33" fill="#000"/><rect width="1" height="1" x="10" y="33" fill="#000"/><rect width="1" height="1" x="11" y="33" fill="#000"/><rect width="1" height="1" x="14" y="33" fill="#000"/><rect width="1" height="1" x="17" y="33" fill="#000"/><rect width="1" height="1" x="19" y="33" fill="#000"/><rect width="1" height="1" x="22" y="33" fill="#000"/><rect width="1" height="1" x="23" y="33" fill="#000"/><rect width="1" height="1" x="24" y="33" fill="#000"/><rect width="1" height="1" x="25" y="33" fill="#000"/><rect width="1" height="1" x="26" y="33" fill="#000"/><rect width="1" height="1" x="27" y="33" fill="#000"/><rect width="1" height="1" x="28" y="33" fill="#000"/><rect width="1" height="1" x="30" y="33" fill="#000"/><rect width="1" height="1" x="32" y="33" fill="#000"/><rect width="1" height="1" x="36" y="33" fill="#000"/><rect width="1" height="1" x="37" y="33" fill="#000"/><rect width="1" height="1" x="38" y="33" fill="#000"/><rect width="1" height="1" x="40" y="33" fill="#000"/><rect width="1" height="1" x="0" y="34" fill="#000"/><rect width="1" height="1" x="1" y="34" fill="#000"/><rect width="1" height="1" x="2" y="34" fill="#000"/><rect width="1" height="1" x="3" y="34" fill="#000"/><rect width="1" height="1" x="4" y="34" fill="#000"/><rect width="1" height="1" x="5" y="34" fill="#000"/><rect width="1" height="1" x="6" y="34" fill="#000"/><rect width="1" height="1" x="9" y="34" fill="#000"/><rect width="1" height="1" x="12" y="34" fill="#000"/><rect width="1" height="1" x="13" y="34" fill="#000"/><rect width="1" height="1" x="14" y="34" fill="#000"/><rect width="1" height="1" x="15" y="34" fill="#000"/><rect width="1" height="1" x="16" y="34" fill="#000"/><rect width="1" height="1" x="20" y="34" fill="#000"/><rect width="1" height="1" x="23" y="34" fill="#000"/><rect width="1" height="1" x="27" y="34" fill="#000"/><rect width="1" height="1" x="28" y="34" fill="#000"/><rect width="1" height="1" x="30" y="34" fill="#000"/><rect width="1" height="1" x="32" y="34" fill="#000"/><rect width="1" height="1" x="34" y="34" fill="#000"/><rect width="1" height="1" x="36" y="34" fill="#000"/><rect width="1" height="1" x="37" y="34" fill="#000"/><rect width="1" height="1" x="38" y="34" fill="#000"/><rect width="1" height="1" x="0" y="35" fill="#000"/><rect width="1" height="1" x="6" y="35" fill="#000"/><rect width="1" height="1" x="11" y="35" fill="#000"/><rect width="1" height="1" x="12" y="35" fill="#000"/><rect width="1" height="1" x="13" y="35" fill="#000"/><rect width="1" height="1" x="14" y="35" fill="#000"/><rect width="1" height="1" x="17" y="35" fill="#000"/><rect width="1" height="1" x="18" y="35" fill="#000"/><rect width="1" height="1" x="20" y="35" fill="#000"/><rect width="1" height="1" x="22" y="35" fill="#000"/><rect width="1" height="1" x="23" y="35" fill="#000"/><rect width="1" height="1" x="30" y="35" fill="#000"/><rect width="1" height="1" x="31" y="35" fill="#000"/><rect width="1" height="1" x="32" y="35" fill="#000"/><rect width="1" height="1" x="36" y="35" fill="#000"/><rect width="1" height="1" x="37" y="35" fill="#000"/><rect width="1" height="1" x="40" y="35" fill="#000"/><rect width="1" height="1" x="0" y="36" fill="#000"/><rect width="1" height="1" x="2" y="36" fill="#000"/><rect width="1" height="1" x="3" y="36" fill="#000"/><rect width="1" height="1" x="4" y="36" fill="#000"/><rect width="1" height="1" x="6" y="36" fill="#000"/><rect width="1" height="1" x="8" y="36" fill="#000"/><rect width="1" height="1" x="9" y="36" fill="#000"/><rect width="1" height="1" x="10" y="36" fill="#000"/><rect width="1" height="1" x="11" y="36" fill="#000"/><rect width="1" height="1" x="12" y="36" fill="#000"/><rect width="1" height="1" x="15" y="36" fill="#000"/><rect width="1" height="1" x="17" y="36" fill="#000"/><rect width="1" height="1" x="19" y="36" fill="#000"/><rect width="1" height="1" x="20" y="36" fill="#000"/><rect width="1" height="1" x="21" y="36" fill="#000"/><rect width="1" height="1" x="22" y="36" fill="#000"/><rect width="1" height="1" x="23" y="36" fill="#000"/><rect width="1" height="1" x="24" y="36" fill="#000"/><rect width="1" height="1" x="26" y="36" fill="#000"/><rect width="1" height="1" x="27" y="36" fill="#000"/><rect width="1" height="1" x="28" y="36" fill="#000"/><rect width="1" height="1" x="29" y="36" fill="#000"/><rect width="1" height="1" x="32" y="36" fill="#000"/><rect width="1" height="1" x="33" y="36" fill="#000"/><rect width="1" height="1" x="34" y="36" fill="#000"/><rect width="1" height="1" x="35" y="36" fill="#000"/><rect width="1" height="1" x="36" y="36" fill="#000"/><rect width="1" height="1" x="37" y="36" fill="#000"/><rect width="1" height="1" x="38" y="36" fill="#000"/><rect width="1" height="1" x="40" y="36" fill="#000"/><rect width="1" height="1" x="0" y="37" fill="#000"/><rect width="1" height="1" x="2" y="37" fill="#000"/><rect width="1" height="1" x="3" y="37" fill="#000"/><rect width="1" height="1" x="4" y="37" fill="#000"/><rect width="1" height="1" x="6" y="37" fill="#000"/><rect width="1" height="1" x="8" y="37" fill="#000"/><rect width="1" height="1" x="9" y="37" fill="#000"/><rect width="1" height="1" x="12" y="37" fill="#000"/><rect width="1" height="1" x="14" y="37" fill="#000"/><rect width="1" height="1" x="15" y="37" fill="#000"/><rect width="1" height="1" x="18" y="37" fill="#000"/><rect width="1" height="1" x="20" y="37" fill="#000"/><rect width="1" height="1" x="21" y="37" fill="#000"/><rect width="1" height="1" x="24" y="37" fill="#000"/><rect width="1" height="1" x="26" y="37" fill="#000"/><rect width="1" height="1" x="28" y="37" fill="#000"/><rect width="1" height="1" x="30" y="37" fill="#000"/><rect width="1" height="1" x="32" y="37" fill="#000"/><rect width="1" height="1" x="33" y="37" fill="#000"/><rect width="1" height="1" x="35" y="37" fill="#000"/><rect width="1" height="1" x="39" y="37" fill="#000"/><rect width="1" height="1" x="40" y="37" fill="#000"/><rect width="1" height="1" x="0" y="38" fill="#000"/><rect width="1" height="1" x="2" y="38" fill="#000"/><rect width="1" height="1" x="3" y="38" fill="#000"/><rect width="1" height="1" x="4" y="38" fill="#000"/><rect width="1" height="1" x="6" y="38" fill="#000"/><rect width="1" height="1" x="8" y="38" fill="#000"/><rect width="1" height="1" x="11" y="38" fill="#000"/><rect width="1" height="1" x="13" y="38" fill="#000"/><rect width="1" height="1" x="14" y="38" fill="#000"/><rect width="1" height="1" x="15" y="38" fill="#000"/><rect width="1" height="1" x="17" y="38" fill="#000"/><rect width="1" height="1" x="19" y="38" fill="#000"/><rect width="1" height="1" x="20" y="38" fill="#000"/><rect width="1" height="1" x="24" y="38" fill="#000"/><rect width="1" height="1" x="26" y="38" fill="#000"/><rect width="1" height="1" x="27" y="38" fill="#000"/><rect width="1" height="1" x="30" y="38" fill="#000"/><rect width="1" height="1" x="33" y="38" fill="#000"/><rect width="1" height="1" x="34" y="38" fill="#000"/><rect width="1" height="1" x="35" y="38" fill="#000"/><rect width="1" height="1" x="36" y="38" fill="#000"/><rect width="1" height="1" x="38" y="38" fill="#000"/><rect width="1" height="1" x="39" y="38" fill="#000"/><rect width="1" height="1" x="0" y="39" fill="#000"/><rect width="1" height="1" x="6" y="39" fill="#000"/><rect width="1" height="1" x="9" y="39" fill="#000"/><rect width="1" height="1" x="11" y="39" fill="#000"/><rect width="1" height="1" x="14" y="39" fill="#000"/><rect width="1" height="1" x="15" y="39" fill="#000"/><rect width="1" height="1" x="17" y="39" fill="#000"/><rect width="1" height="1" x="18" y="39" fill="#000"/><rect width="1" height="1" x="20" y="39" fill="#000"/><rect width="1" height="1" x="22" y="39" fill="#000"/><rect width="1" height="1" x="27" y="39" fill="#000"/><rect width="1" height="1" x="28" y="39" fill="#000"/><rect width="1" height="1" x="30" y="39" fill="#000"/><rect width="1" height="1" x="32" y="39" fill="#000"/><rect width="1" height="1" x="34" y="39" fill="#000"/><rect width="1" height="1" x="36" y="39" fill="#000"/><rect width="1" height="1" x="37" y="39" fill="#000"/><rect width="1" height="1" x="38" y="39" fill="#000"/><rect width="1" height="1" x="39" y="39" fill="#000"/><rect width="1" height="1" x="0" y="40" fill="#000"/><rect width="1" height="1" x="1" y="40" fill="#000"/><rect width="1" height="1" x="2" y="40" fill="#000"/><rect width="1" height="1" x="3" y="40" fill="#000"/><rect width="1" height="1" x="4" y="40" fill="#000"/><rect width="1" height="1" x="5" y="40" fill="#000"/><rect width="1" height="1" x="6" y="40" fill="#000"/><rect width="1" height="1" x="9" y="40" fill="#000"/><rect width="1" height="1" x="10" y="40" fill="#000"/><rect width="1" height="1" x="12" y="40" fill="#000"/><rect width="1" height="1" x="14" y="40" fill="#000"/><rect width="1" height="1" x="17" y="40" fill="#000"/><rect width="1" height="1" x="19" y="40" fill="#000"/><rect width="1" height="1" x="21" y="40" fill="#000"/><rect width="1" height="1" x="23" y="40" fill="#000"/><rect width="1" height="1" x="24" y="40" fill="#000"/><rect width="1" height="1" x="27" y="40" fill="#000"/><rect width="1" height="1" x="29" y="40" fill="#000"/><rect width="1" height="1" x="30" y="40" fill="#000"/><rect width="1" height="1" x="31" y="40" fill="#000"/><rect width="1" height="1" x="34" y="40" fill="#000"/><rect width="1" height="1" x="35" y="40" fill="#000"/><rect width="1" height="1" x="36" y="40" fill="#000"/><rect width="1" height="1" x="37" y="40" fill="#000"/></g></g></svg>