<svg xmlns="http://www.w3.org/2000/svg" width="4.34cm" height="4.34cm" preserveAspectRatio="none" version="1.1" viewBox="0 0 41 41"><g id="QRcode"><rect width="41" height="41" x="0" y="0" fill="#fff"/><g id="Pattern" transform="translate(2,2)"><rect width="1" height="1" x="0" y="0" fill="#000"/><rect width="1" height="1" x="1" y="0" fill="#000"/><rect width="1" height="1" x="2" y="0" fill="#000"/><rect width="1" height="1" x="3" y="0" fill="#000"/><rect width="1" height="1" x="4" y="0" fill="#000"/><rect width="1" height="1" x="5" y="0" fill="#000"/><rect width="1" height="1" x="6" y="0" fill="#000"/><rect width="1" height="1" x="8" y="0" fill="#000"/><rect width="1" height="1" x="11" y="0" fill="#000"/><rect width="1" height="1" x="12" y="0" fill="#000"/><rect width="1" height="1" x="13" y="0" fill="#000"/><rect width="1" height="1" x="16" y="0" fill="#000"/><rect width="1" height="1" x="17" y="0" fill="#000"/><rect width="1" height="1" x="18" y="0" fill="#000"/><rect width="1" height="1" x="22" y="0" fill="#000"/><rect width="1" height="1" x="24" y="0" fill="#000"/><rect width="1" height="1" x="28" y="0" fill="#000"/><rect width="1" height="1" x="30" y="0" fill="#000"/><rect width="1" height="1" x="31" y="0" fill="#000"/><rect width="1" height="1" x="32" y="0" fill="#000"/><rect width="1" height="1" x="33" y="0" fill="#000"/><rect width="1" height="1" x="34" y="0" fill="#000"/><rect width="1" height="1" x="35" y="0" fill="#000"/><rect width="1" height="1" x="36" y="0" fill="#000"/><rect width="1" height="1" x="0" y="1" fill="#000"/><rect width="1" height="1" x="6" y="1" fill="#000"/><rect width="1" height="1" x="8" y="1" fill="#000"/><rect width="1" height="1" x="9" y="1" fill="#000"/><rect width="1" height="1" x="10" y="1" fill="#000"/><rect width="1" height="1" x="13" y="1" fill="#000"/><rect width="1" height="1" x="14" y="1" fill="#000"/><rect width="1" height="1" x="16" y="1" fill="#000"/><rect width="1" height="1" x="18" y="1" fill="#000"/><rect width="1" height="1" x="21" y="1" fill="#000"/><rect width="1" height="1" x="22" y="1" fill="#000"/><rect width="1" height="1" x="25" y="1" fill="#000"/><rect width="1" height="1" x="27" y="1" fill="#000"/><rect width="1" height="1" x="30" y="1" fill="#000"/><rect width="1" height="1" x="36" y="1" fill="#000"/><rect width="1" height="1" x="0" y="2" fill="#000"/><rect width="1" height="1" x="2" y="2" fill="#000"/><rect width="1" height="1" x="3" y="2" fill="#000"/><rect width="1" height="1" x="4" y="2" fill="#000"/><rect width="1" height="1" x="6" y="2" fill="#000"/><rect width="1" height="1" x="8" y="2" fill="#000"/><rect width="1" height="1" x="10" y="2" fill="#000"/><rect width="1" height="1" x="12" y="2" fill="#000"/><rect width="1" height="1" x="15" y="2" fill="#000"/><rect width="1" height="1" x="16" y="2" fill="#000"/><rect width="1" height="1" x="19" y="2" fill="#000"/><rect width="1" height="1" x="20" y="2" fill="#000"/><rect width="1" height="1" x="21" y="2" fill="#000"/><rect width="1" height="1" x="22" y="2" fill="#000"/><rect width="1" height="1" x="24" y="2" fill="#000"/><rect width="1" height="1" x="27" y="2" fill="#000"/><rect width="1" height="1" x="28" y="2" fill="#000"/><rect width="1" height="1" x="30" y="2" fill="#000"/><rect width="1" height="1" x="32" y="2" fill="#000"/><rect width="1" height="1" x="33" y="2" fill="#000"/><rect width="1" height="1" x="34" y="2" fill="#000"/><rect width="1" height="1" x="36" y="2" fill="#000"/><rect width="1" height="1" x="0" y="3" fill="#000"/><rect width="1" height="1" x="2" y="3" fill="#000"/><rect width="1" height="1" x="3" y="3" fill="#000"/><rect width="1" height="1" x="4" y="3" fill="#000"/><rect width="1" height="1" x="6" y="3" fill="#000"/><rect width="1" height="1" x="10" y="3" fill="#000"/><rect width="1" height="1" x="15" y="3" fill="#000"/><rect width="1" height="1" x="23" y="3" fill="#000"/><rect width="1" height="1" x="25" y="3" fill="#000"/><rect width="1" height="1" x="27" y="3" fill="#000"/><rect width="1" height="1" x="28" y="3" fill="#000"/><rect width="1" height="1" x="30" y="3" fill="#000"/><rect width="1" height="1" x="32" y="3" fill="#000"/><rect width="1" height="1" x="33" y="3" fill="#000"/><rect width="1" height="1" x="34" y="3" fill="#000"/><rect width="1" height="1" x="36" y="3" fill="#000"/><rect width="1" height="1" x="0" y="4" fill="#000"/><rect width="1" height="1" x="2" y="4" fill="#000"/><rect width="1" height="1" x="3" y="4" fill="#000"/><rect width="1" height="1" x="4" y="4" fill="#000"/><rect width="1" height="1" x="6" y="4" fill="#000"/><rect width="1" height="1" x="9" y="4" fill="#000"/><rect width="1" height="1" x="10" y="4" fill="#000"/><rect width="1" height="1" x="11" y="4" fill="#000"/><rect width="1" height="1" x="15" y="4" fill="#000"/><rect width="1" height="1" x="19" y="4" fill="#000"/><rect width="1" height="1" x="21" y="4" fill="#000"/><rect width="1" height="1" x="28" y="4" fill="#000"/><rect width="1" height="1" x="30" y="4" fill="#000"/><rect width="1" height="1" x="32" y="4" fill="#000"/><rect width="1" height="1" x="33" y="4" fill="#000"/><rect width="1" height="1" x="34" y="4" fill="#000"/><rect width="1" height="1" x="36" y="4" fill="#000"/><rect width="1" height="1" x="0" y="5" fill="#000"/><rect width="1" height="1" x="6" y="5" fill="#000"/><rect width="1" height="1" x="8" y="5" fill="#000"/><rect width="1" height="1" x="14" y="5" fill="#000"/><rect width="1" height="1" x="15" y="5" fill="#000"/><rect width="1" height="1" x="17" y="5" fill="#000"/><rect width="1" height="1" x="18" y="5" fill="#000"/><rect width="1" height="1" x="20" y="5" fill="#000"/><rect width="1" height="1" x="21" y="5" fill="#000"/><rect width="1" height="1" x="22" y="5" fill="#000"/><rect width="1" height="1" x="23" y="5" fill="#000"/><rect width="1" height="1" x="24" y="5" fill="#000"/><rect width="1" height="1" x="27" y="5" fill="#000"/><rect width="1" height="1" x="28" y="5" fill="#000"/><rect width="1" height="1" x="30" y="5" fill="#000"/><rect width="1" height="1" x="36" y="5" fill="#000"/><rect width="1" height="1" x="0" y="6" fill="#000"/><rect width="1" height="1" x="1" y="6" fill="#000"/><rect width="1" height="1" x="2" y="6" fill="#000"/><rect width="1" height="1" x="3" y="6" fill="#000"/><rect width="1" height="1" x="4" y="6" fill="#000"/><rect width="1" height="1" x="5" y="6" fill="#000"/><rect width="1" height="1" x="6" y="6" fill="#000"/><rect width="1" height="1" x="8" y="6" fill="#000"/><rect width="1" height="1" x="10" y="6" fill="#000"/><rect width="1" height="1" x="12" y="6" fill="#000"/><rect width="1" height="1" x="14" y="6" fill="#000"/><rect width="1" height="1" x="16" y="6" fill="#000"/><rect width="1" height="1" x="18" y="6" fill="#000"/><rect width="1" height="1" x="20" y="6" fill="#000"/><rect width="1" height="1" x="22" y="6" fill="#000"/><rect width="1" height="1" x="24" y="6" fill="#000"/><rect width="1" height="1" x="26" y="6" fill="#000"/><rect width="1" height="1" x="28" y="6" fill="#000"/><rect width="1" height="1" x="30" y="6" fill="#000"/><rect width="1" height="1" x="31" y="6" fill="#000"/><rect width="1" height="1" x="32" y="6" fill="#000"/><rect width="1" height="1" x="33" y="6" fill="#000"/><rect width="1" height="1" x="34" y="6" fill="#000"/><rect width="1" height="1" x="35" y="6" fill="#000"/><rect width="1" height="1" x="36" y="6" fill="#000"/><rect width="1" height="1" x="8" y="7" fill="#000"/><rect width="1" height="1" x="9" y="7" fill="#000"/><rect width="1" height="1" x="10" y="7" fill="#000"/><rect width="1" height="1" x="13" y="7" fill="#000"/><rect width="1" height="1" x="14" y="7" fill="#000"/><rect width="1" height="1" x="17" y="7" fill="#000"/><rect width="1" height="1" x="18" y="7" fill="#000"/><rect width="1" height="1" x="19" y="7" fill="#000"/><rect width="1" height="1" x="20" y="7" fill="#000"/><rect width="1" height="1" x="26" y="7" fill="#000"/><rect width="1" height="1" x="28" y="7" fill="#000"/><rect width="1" height="1" x="2" y="8" fill="#000"/><rect width="1" height="1" x="3" y="8" fill="#000"/><rect width="1" height="1" x="4" y="8" fill="#000"/><rect width="1" height="1" x="6" y="8" fill="#000"/><rect width="1" height="1" x="8" y="8" fill="#000"/><rect width="1" height="1" x="9" y="8" fill="#000"/><rect width="1" height="1" x="10" y="8" fill="#000"/><rect width="1" height="1" x="15" y="8" fill="#000"/><rect width="1" height="1" x="16" y="8" fill="#000"/><rect width="1" height="1" x="18" y="8" fill="#000"/><rect width="1" height="1" x="19" y="8" fill="#000"/><rect width="1" height="1" x="23" y="8" fill="#000"/><rect width="1" height="1" x="24" y="8" fill="#000"/><rect width="1" height="1" x="29" y="8" fill="#000"/><rect width="1" height="1" x="30" y="8" fill="#000"/><rect width="1" height="1" x="31" y="8" fill="#000"/><rect width="1" height="1" x="34" y="8" fill="#000"/><rect width="1" height="1" x="35" y="8" fill="#000"/><rect width="1" height="1" x="36" y="8" fill="#000"/><rect width="1" height="1" x="0" y="9" fill="#000"/><rect width="1" height="1" x="1" y="9" fill="#000"/><rect width="1" height="1" x="2" y="9" fill="#000"/><rect width="1" height="1" x="4" y="9" fill="#000"/><rect width="1" height="1" x="5" y="9" fill="#000"/><rect width="1" height="1" x="7" y="9" fill="#000"/><rect width="1" height="1" x="11" y="9" fill="#000"/><rect width="1" height="1" x="14" y="9" fill="#000"/><rect width="1" height="1" x="15" y="9" fill="#000"/><rect width="1" height="1" x="17" y="9" fill="#000"/><rect width="1" height="1" x="18" y="9" fill="#000"/><rect width="1" height="1" x="19" y="9" fill="#000"/><rect width="1" height="1" x="23" y="9" fill="#000"/><rect width="1" height="1" x="26" y="9" fill="#000"/><rect width="1" height="1" x="27" y="9" fill="#000"/><rect width="1" height="1" x="28" y="9" fill="#000"/><rect width="1" height="1" x="29" y="9" fill="#000"/><rect width="1" height="1" x="31" y="9" fill="#000"/><rect width="1" height="1" x="3" y="10" fill="#000"/><rect width="1" height="1" x="4" y="10" fill="#000"/><rect width="1" height="1" x="6" y="10" fill="#000"/><rect width="1" height="1" x="7" y="10" fill="#000"/><rect width="1" height="1" x="12" y="10" fill="#000"/><rect width="1" height="1" x="14" y="10" fill="#000"/><rect width="1" height="1" x="15" y="10" fill="#000"/><rect width="1" height="1" x="18" y="10" fill="#000"/><rect width="1" height="1" x="19" y="10" fill="#000"/><rect width="1" height="1" x="21" y="10" fill="#000"/><rect width="1" height="1" x="23" y="10" fill="#000"/><rect width="1" height="1" x="25" y="10" fill="#000"/><rect width="1" height="1" x="30" y="10" fill="#000"/><rect width="1" height="1" x="31" y="10" fill="#000"/><rect width="1" height="1" x="32" y="10" fill="#000"/><rect width="1" height="1" x="33" y="10" fill="#000"/><rect width="1" height="1" x="35" y="10" fill="#000"/><rect width="1" height="1" x="36" y="10" fill="#000"/><rect width="1" height="1" x="2" y="11" fill="#000"/><rect width="1" height="1" x="5" y="11" fill="#000"/><rect width="1" height="1" x="7" y="11" fill="#000"/><rect width="1" height="1" x="10" y="11" fill="#000"/><rect width="1" height="1" x="11" y="11" fill="#000"/><rect width="1" height="1" x="12" y="11" fill="#000"/><rect width="1" height="1" x="15" y="11" fill="#000"/><rect width="1" height="1" x="16" y="11" fill="#000"/><rect width="1" height="1" x="18" y="11" fill="#000"/><rect width="1" height="1" x="19" y="11" fill="#000"/><rect width="1" height="1" x="20" y="11" fill="#000"/><rect width="1" height="1" x="21" y="11" fill="#000"/><rect width="1" height="1" x="22" y="11" fill="#000"/><rect width="1" height="1" x="28" y="11" fill="#000"/><rect width="1" height="1" x="30" y="11" fill="#000"/><rect width="1" height="1" x="31" y="11" fill="#000"/><rect width="1" height="1" x="32" y="11" fill="#000"/><rect width="1" height="1" x="33" y="11" fill="#000"/><rect width="1" height="1" x="36" y="11" fill="#000"/><rect width="1" height="1" x="1" y="12" fill="#000"/><rect width="1" height="1" x="3" y="12" fill="#000"/><rect width="1" height="1" x="5" y="12" fill="#000"/><rect width="1" height="1" x="6" y="12" fill="#000"/><rect width="1" height="1" x="7" y="12" fill="#000"/><rect width="1" height="1" x="8" y="12" fill="#000"/><rect width="1" height="1" x="11" y="12" fill="#000"/><rect width="1" height="1" x="12" y="12" fill="#000"/><rect width="1" height="1" x="13" y="12" fill="#000"/><rect width="1" height="1" x="14" y="12" fill="#000"/><rect width="1" height="1" x="16" y="12" fill="#000"/><rect width="1" height="1" x="17" y="12" fill="#000"/><rect width="1" height="1" x="18" y="12" fill="#000"/><rect width="1" height="1" x="20" y="12" fill="#000"/><rect width="1" height="1" x="22" y="12" fill="#000"/><rect width="1" height="1" x="23" y="12" fill="#000"/><rect width="1" height="1" x="24" y="12" fill="#000"/><rect width="1" height="1" x="25" y="12" fill="#000"/><rect width="1" height="1" x="28" y="12" fill="#000"/><rect width="1" height="1" x="30" y="12" fill="#000"/><rect width="1" height="1" x="31" y="12" fill="#000"/><rect width="1" height="1" x="32" y="12" fill="#000"/><rect width="1" height="1" x="33" y="12" fill="#000"/><rect width="1" height="1" x="34" y="12" fill="#000"/><rect width="1" height="1" x="35" y="12" fill="#000"/><rect width="1" height="1" x="36" y="12" fill="#000"/><rect width="1" height="1" x="0" y="13" fill="#000"/><rect width="1" height="1" x="4" y="13" fill="#000"/><rect width="1" height="1" x="5" y="13" fill="#000"/><rect width="1" height="1" x="10" y="13" fill="#000"/><rect width="1" height="1" x="14" y="13" fill="#000"/><rect width="1" height="1" x="18" y="13" fill="#000"/><rect width="1" height="1" x="19" y="13" fill="#000"/><rect width="1" height="1" x="20" y="13" fill="#000"/><rect width="1" height="1" x="21" y="13" fill="#000"/><rect width="1" height="1" x="22" y="13" fill="#000"/><rect width="1" height="1" x="24" y="13" fill="#000"/><rect width="1" height="1" x="28" y="13" fill="#000"/><rect width="1" height="1" x="29" y="13" fill="#000"/><rect width="1" height="1" x="31" y="13" fill="#000"/><rect width="1" height="1" x="33" y="13" fill="#000"/><rect width="1" height="1" x="34" y="13" fill="#000"/><rect width="1" height="1" x="1" y="14" fill="#000"/><rect width="1" height="1" x="2" y="14" fill="#000"/><rect width="1" height="1" x="6" y="14" fill="#000"/><rect width="1" height="1" x="9" y="14" fill="#000"/><rect width="1" height="1" x="11" y="14" fill="#000"/><rect width="1" height="1" x="12" y="14" fill="#000"/><rect width="1" height="1" x="16" y="14" fill="#000"/><rect width="1" height="1" x="17" y="14" fill="#000"/><rect width="1" height="1" x="18" y="14" fill="#000"/><rect width="1" height="1" x="20" y="14" fill="#000"/><rect width="1" height="1" x="21" y="14" fill="#000"/><rect width="1" height="1" x="26" y="14" fill="#000"/><rect width="1" height="1" x="27" y="14" fill="#000"/><rect width="1" height="1" x="31" y="14" fill="#000"/><rect width="1" height="1" x="32" y="14" fill="#000"/><rect width="1" height="1" x="33" y="14" fill="#000"/><rect width="1" height="1" x="35" y="14" fill="#000"/><rect width="1" height="1" x="36" y="14" fill="#000"/><rect width="1" height="1" x="0" y="15" fill="#000"/><rect width="1" height="1" x="1" y="15" fill="#000"/><rect width="1" height="1" x="3" y="15" fill="#000"/><rect width="1" height="1" x="4" y="15" fill="#000"/><rect width="1" height="1" x="5" y="15" fill="#000"/><rect width="1" height="1" x="9" y="15" fill="#000"/><rect width="1" height="1" x="10" y="15" fill="#000"/><rect width="1" height="1" x="12" y="15" fill="#000"/><rect width="1" height="1" x="15" y="15" fill="#000"/><rect width="1" height="1" x="16" y="15" fill="#000"/><rect width="1" height="1" x="18" y="15" fill="#000"/><rect width="1" height="1" x="20" y="15" fill="#000"/><rect width="1" height="1" x="22" y="15" fill="#000"/><rect width="1" height="1" x="26" y="15" fill="#000"/><rect width="1" height="1" x="28" y="15" fill="#000"/><rect width="1" height="1" x="29" y="15" fill="#000"/><rect width="1" height="1" x="30" y="15" fill="#000"/><rect width="1" height="1" x="31" y="15" fill="#000"/><rect width="1" height="1" x="32" y="15" fill="#000"/><rect width="1" height="1" x="35" y="15" fill="#000"/><rect width="1" height="1" x="36" y="15" fill="#000"/><rect width="1" height="1" x="1" y="16" fill="#000"/><rect width="1" height="1" x="2" y="16" fill="#000"/><rect width="1" height="1" x="6" y="16" fill="#000"/><rect width="1" height="1" x="7" y="16" fill="#000"/><rect width="1" height="1" x="11" y="16" fill="#000"/><rect width="1" height="1" x="12" y="16" fill="#000"/><rect width="1" height="1" x="15" y="16" fill="#000"/><rect width="1" height="1" x="19" y="16" fill="#000"/><rect width="1" height="1" x="21" y="16" fill="#000"/><rect width="1" height="1" x="22" y="16" fill="#000"/><rect width="1" height="1" x="24" y="16" fill="#000"/><rect width="1" height="1" x="25" y="16" fill="#000"/><rect width="1" height="1" x="26" y="16" fill="#000"/><rect width="1" height="1" x="27" y="16" fill="#000"/><rect width="1" height="1" x="29" y="16" fill="#000"/><rect width="1" height="1" x="30" y="16" fill="#000"/><rect width="1" height="1" x="32" y="16" fill="#000"/><rect width="1" height="1" x="34" y="16" fill="#000"/><rect width="1" height="1" x="1" y="17" fill="#000"/><rect width="1" height="1" x="13" y="17" fill="#000"/><rect width="1" height="1" x="16" y="17" fill="#000"/><rect width="1" height="1" x="17" y="17" fill="#000"/><rect width="1" height="1" x="19" y="17" fill="#000"/><rect width="1" height="1" x="20" y="17" fill="#000"/><rect width="1" height="1" x="22" y="17" fill="#000"/><rect width="1" height="1" x="25" y="17" fill="#000"/><rect width="1" height="1" x="26" y="17" fill="#000"/><rect width="1" height="1" x="28" y="17" fill="#000"/><rect width="1" height="1" x="31" y="17" fill="#000"/><rect width="1" height="1" x="34" y="17" fill="#000"/><rect width="1" height="1" x="1" y="18" fill="#000"/><rect width="1" height="1" x="3" y="18" fill="#000"/><rect width="1" height="1" x="6" y="18" fill="#000"/><rect width="1" height="1" x="9" y="18" fill="#000"/><rect width="1" height="1" x="12" y="18" fill="#000"/><rect width="1" height="1" x="13" y="18" fill="#000"/><rect width="1" height="1" x="14" y="18" fill="#000"/><rect width="1" height="1" x="19" y="18" fill="#000"/><rect width="1" height="1" x="20" y="18" fill="#000"/><rect width="1" height="1" x="22" y="18" fill="#000"/><rect width="1" height="1" x="23" y="18" fill="#000"/><rect width="1" height="1" x="26" y="18" fill="#000"/><rect width="1" height="1" x="27" y="18" fill="#000"/><rect width="1" height="1" x="31" y="18" fill="#000"/><rect width="1" height="1" x="33" y="18" fill="#000"/><rect width="1" height="1" x="35" y="18" fill="#000"/><rect width="1" height="1" x="36" y="18" fill="#000"/><rect width="1" height="1" x="1" y="19" fill="#000"/><rect width="1" height="1" x="3" y="19" fill="#000"/><rect width="1" height="1" x="4" y="19" fill="#000"/><rect width="1" height="1" x="12" y="19" fill="#000"/><rect width="1" height="1" x="13" y="19" fill="#000"/><rect width="1" height="1" x="14" y="19" fill="#000"/><rect width="1" height="1" x="15" y="19" fill="#000"/><rect width="1" height="1" x="18" y="19" fill="#000"/><rect width="1" height="1" x="19" y="19" fill="#000"/><rect width="1" height="1" x="21" y="19" fill="#000"/><rect width="1" height="1" x="26" y="19" fill="#000"/><rect width="1" height="1" x="28" y="19" fill="#000"/><rect width="1" height="1" x="30" y="19" fill="#000"/><rect width="1" height="1" x="35" y="19" fill="#000"/><rect width="1" height="1" x="0" y="20" fill="#000"/><rect width="1" height="1" x="1" y="20" fill="#000"/><rect width="1" height="1" x="2" y="20" fill="#000"/><rect width="1" height="1" x="4" y="20" fill="#000"/><rect width="1" height="1" x="6" y="20" fill="#000"/><rect width="1" height="1" x="11" y="20" fill="#000"/><rect width="1" height="1" x="12" y="20" fill="#000"/><rect width="1" height="1" x="13" y="20" fill="#000"/><rect width="1" height="1" x="14" y="20" fill="#000"/><rect width="1" height="1" x="15" y="20" fill="#000"/><rect width="1" height="1" x="16" y="20" fill="#000"/><rect width="1" height="1" x="18" y="20" fill="#000"/><rect width="1" height="1" x="19" y="20" fill="#000"/><rect width="1" height="1" x="21" y="20" fill="#000"/><rect width="1" height="1" x="22" y="20" fill="#000"/><rect width="1" height="1" x="23" y="20" fill="#000"/><rect width="1" height="1" x="24" y="20" fill="#000"/><rect width="1" height="1" x="25" y="20" fill="#000"/><rect width="1" height="1" x="29" y="20" fill="#000"/><rect width="1" height="1" x="30" y="20" fill="#000"/><rect width="1" height="1" x="31" y="20" fill="#000"/><rect width="1" height="1" x="32" y="20" fill="#000"/><rect width="1" height="1" x="34" y="20" fill="#000"/><rect width="1" height="1" x="35" y="20" fill="#000"/><rect width="1" height="1" x="36" y="20" fill="#000"/><rect width="1" height="1" x="4" y="21" fill="#000"/><rect width="1" height="1" x="5" y="21" fill="#000"/><rect width="1" height="1" x="9" y="21" fill="#000"/><rect width="1" height="1" x="10" y="21" fill="#000"/><rect width="1" height="1" x="12" y="21" fill="#000"/><rect width="1" height="1" x="13" y="21" fill="#000"/><rect width="1" height="1" x="15" y="21" fill="#000"/><rect width="1" height="1" x="16" y="21" fill="#000"/><rect width="1" height="1" x="19" y="21" fill="#000"/><rect width="1" height="1" x="21" y="21" fill="#000"/><rect width="1" height="1" x="23" y="21" fill="#000"/><rect width="1" height="1" x="25" y="21" fill="#000"/><rect width="1" height="1" x="26" y="21" fill="#000"/><rect width="1" height="1" x="29" y="21" fill="#000"/><rect width="1" height="1" x="31" y="21" fill="#000"/><rect width="1" height="1" x="35" y="21" fill="#000"/><rect width="1" height="1" x="1" y="22" fill="#000"/><rect width="1" height="1" x="2" y="22" fill="#000"/><rect width="1" height="1" x="6" y="22" fill="#000"/><rect width="1" height="1" x="7" y="22" fill="#000"/><rect width="1" height="1" x="10" y="22" fill="#000"/><rect width="1" height="1" x="11" y="22" fill="#000"/><rect width="1" height="1" x="13" y="22" fill="#000"/><rect width="1" height="1" x="15" y="22" fill="#000"/><rect width="1" height="1" x="16" y="22" fill="#000"/><rect width="1" height="1" x="17" y="22" fill="#000"/><rect width="1" height="1" x="19" y="22" fill="#000"/><rect width="1" height="1" x="21" y="22" fill="#000"/><rect width="1" height="1" x="22" y="22" fill="#000"/><rect width="1" height="1" x="24" y="22" fill="#000"/><rect width="1" height="1" x="25" y="22" fill="#000"/><rect width="1" height="1" x="26" y="22" fill="#000"/><rect width="1" height="1" x="27" y="22" fill="#000"/><rect width="1" height="1" x="28" y="22" fill="#000"/><rect width="1" height="1" x="30" y="22" fill="#000"/><rect width="1" height="1" x="36" y="22" fill="#000"/><rect width="1" height="1" x="2" y="23" fill="#000"/><rect width="1" height="1" x="3" y="23" fill="#000"/><rect width="1" height="1" x="10" y="23" fill="#000"/><rect width="1" height="1" x="15" y="23" fill="#000"/><rect width="1" height="1" x="19" y="23" fill="#000"/><rect width="1" height="1" x="20" y="23" fill="#000"/><rect width="1" height="1" x="24" y="23" fill="#000"/><rect width="1" height="1" x="25" y="23" fill="#000"/><rect width="1" height="1" x="28" y="23" fill="#000"/><rect width="1" height="1" x="30" y="23" fill="#000"/><rect width="1" height="1" x="31" y="23" fill="#000"/><rect width="1" height="1" x="2" y="24" fill="#000"/><rect width="1" height="1" x="4" y="24" fill="#000"/><rect width="1" height="1" x="6" y="24" fill="#000"/><rect width="1" height="1" x="7" y="24" fill="#000"/><rect width="1" height="1" x="8" y="24" fill="#000"/><rect width="1" height="1" x="9" y="24" fill="#000"/><rect width="1" height="1" x="10" y="24" fill="#000"/><rect width="1" height="1" x="11" y="24" fill="#000"/><rect width="1" height="1" x="12" y="24" fill="#000"/><rect width="1" height="1" x="14" y="24" fill="#000"/><rect width="1" height="1" x="19" y="24" fill="#000"/><rect width="1" height="1" x="20" y="24" fill="#000"/><rect width="1" height="1" x="21" y="24" fill="#000"/><rect width="1" height="1" x="22" y="24" fill="#000"/><rect width="1" height="1" x="23" y="24" fill="#000"/><rect width="1" height="1" x="24" y="24" fill="#000"/><rect width="1" height="1" x="26" y="24" fill="#000"/><rect width="1" height="1" x="29" y="24" fill="#000"/><rect width="1" height="1" x="30" y="24" fill="#000"/><rect width="1" height="1" x="32" y="24" fill="#000"/><rect width="1" height="1" x="34" y="24" fill="#000"/><rect width="1" height="1" x="36" y="24" fill="#000"/><rect width="1" height="1" x="0" y="25" fill="#000"/><rect width="1" height="1" x="1" y="25" fill="#000"/><rect width="1" height="1" x="3" y="25" fill="#000"/><rect width="1" height="1" x="5" y="25" fill="#000"/><rect width="1" height="1" x="7" y="25" fill="#000"/><rect width="1" height="1" x="8" y="25" fill="#000"/><rect width="1" height="1" x="9" y="25" fill="#000"/><rect width="1" height="1" x="13" y="25" fill="#000"/><rect width="1" height="1" x="14" y="25" fill="#000"/><rect width="1" height="1" x="18" y="25" fill="#000"/><rect width="1" height="1" x="22" y="25" fill="#000"/><rect width="1" height="1" x="25" y="25" fill="#000"/><rect width="1" height="1" x="27" y="25" fill="#000"/><rect width="1" height="1" x="29" y="25" fill="#000"/><rect width="1" height="1" x="31" y="25" fill="#000"/><rect width="1" height="1" x="34" y="25" fill="#000"/><rect width="1" height="1" x="0" y="26" fill="#000"/><rect width="1" height="1" x="2" y="26" fill="#000"/><rect width="1" height="1" x="4" y="26" fill="#000"/><rect width="1" height="1" x="6" y="26" fill="#000"/><rect width="1" height="1" x="16" y="26" fill="#000"/><rect width="1" height="1" x="17" y="26" fill="#000"/><rect width="1" height="1" x="19" y="26" fill="#000"/><rect width="1" height="1" x="20" y="26" fill="#000"/><rect width="1" height="1" x="21" y="26" fill="#000"/><rect width="1" height="1" x="23" y="26" fill="#000"/><rect width="1" height="1" x="24" y="26" fill="#000"/><rect width="1" height="1" x="25" y="26" fill="#000"/><rect width="1" height="1" x="26" y="26" fill="#000"/><rect width="1" height="1" x="27" y="26" fill="#000"/><rect width="1" height="1" x="28" y="26" fill="#000"/><rect width="1" height="1" x="31" y="26" fill="#000"/><rect width="1" height="1" x="32" y="26" fill="#000"/><rect width="1" height="1" x="35" y="26" fill="#000"/><rect width="1" height="1" x="36" y="26" fill="#000"/><rect width="1" height="1" x="0" y="27" fill="#000"/><rect width="1" height="1" x="2" y="27" fill="#000"/><rect width="1" height="1" x="4" y="27" fill="#000"/><rect width="1" height="1" x="5" y="27" fill="#000"/><rect width="1" height="1" x="7" y="27" fill="#000"/><rect width="1" height="1" x="8" y="27" fill="#000"/><rect width="1" height="1" x="9" y="27" fill="#000"/><rect width="1" height="1" x="10" y="27" fill="#000"/><rect width="1" height="1" x="11" y="27" fill="#000"/><rect width="1" height="1" x="13" y="27" fill="#000"/><rect width="1" height="1" x="15" y="27" fill="#000"/><rect width="1" height="1" x="17" y="27" fill="#000"/><rect width="1" height="1" x="18" y="27" fill="#000"/><rect width="1" height="1" x="22" y="27" fill="#000"/><rect width="1" height="1" x="23" y="27" fill="#000"/><rect width="1" height="1" x="35" y="27" fill="#000"/><rect width="1" height="1" x="0" y="28" fill="#000"/><rect width="1" height="1" x="3" y="28" fill="#000"/><rect width="1" height="1" x="5" y="28" fill="#000"/><rect width="1" height="1" x="6" y="28" fill="#000"/><rect width="1" height="1" x="7" y="28" fill="#000"/><rect width="1" height="1" x="8" y="28" fill="#000"/><rect width="1" height="1" x="12" y="28" fill="#000"/><rect width="1" height="1" x="16" y="28" fill="#000"/><rect width="1" height="1" x="17" y="28" fill="#000"/><rect width="1" height="1" x="18" y="28" fill="#000"/><rect width="1" height="1" x="21" y="28" fill="#000"/><rect width="1" height="1" x="23" y="28" fill="#000"/><rect width="1" height="1" x="25" y="28" fill="#000"/><rect width="1" height="1" x="26" y="28" fill="#000"/><rect width="1" height="1" x="27" y="28" fill="#000"/><rect width="1" height="1" x="28" y="28" fill="#000"/><rect width="1" height="1" x="29" y="28" fill="#000"/><rect width="1" height="1" x="30" y="28" fill="#000"/><rect width="1" height="1" x="31" y="28" fill="#000"/><rect width="1" height="1" x="32" y="28" fill="#000"/><rect width="1" height="1" x="34" y="28" fill="#000"/><rect width="1" height="1" x="35" y="28" fill="#000"/><rect width="1" height="1" x="8" y="29" fill="#000"/><rect width="1" height="1" x="11" y="29" fill="#000"/><rect width="1" height="1" x="12" y="29" fill="#000"/><rect width="1" height="1" x="13" y="29" fill="#000"/><rect width="1" height="1" x="15" y="29" fill="#000"/><rect width="1" height="1" x="17" y="29" fill="#000"/><rect width="1" height="1" x="19" y="29" fill="#000"/><rect width="1" height="1" x="20" y="29" fill="#000"/><rect width="1" height="1" x="22" y="29" fill="#000"/><rect width="1" height="1" x="23" y="29" fill="#000"/><rect width="1" height="1" x="24" y="29" fill="#000"/><rect width="1" height="1" x="26" y="29" fill="#000"/><rect width="1" height="1" x="27" y="29" fill="#000"/><rect width="1" height="1" x="28" y="29" fill="#000"/><rect width="1" height="1" x="32" y="29" fill="#000"/><rect width="1" height="1" x="35" y="29" fill="#000"/><rect width="1" height="1" x="0" y="30" fill="#000"/><rect width="1" height="1" x="1" y="30" fill="#000"/><rect width="1" height="1" x="2" y="30" fill="#000"/><rect width="1" height="1" x="3" y="30" fill="#000"/><rect width="1" height="1" x="4" y="30" fill="#000"/><rect width="1" height="1" x="5" y="30" fill="#000"/><rect width="1" height="1" x="6" y="30" fill="#000"/><rect width="1" height="1" x="9" y="30" fill="#000"/><rect width="1" height="1" x="10" y="30" fill="#000"/><rect width="1" height="1" x="12" y="30" fill="#000"/><rect width="1" height="1" x="14" y="30" fill="#000"/><rect width="1" height="1" x="15" y="30" fill="#000"/><rect width="1" height="1" x="18" y="30" fill="#000"/><rect width="1" height="1" x="19" y="30" fill="#000"/><rect width="1" height="1" x="20" y="30" fill="#000"/><rect width="1" height="1" x="22" y="30" fill="#000"/><rect width="1" height="1" x="24" y="30" fill="#000"/><rect width="1" height="1" x="25" y="30" fill="#000"/><rect width="1" height="1" x="26" y="30" fill="#000"/><rect width="1" height="1" x="28" y="30" fill="#000"/><rect width="1" height="1" x="30" y="30" fill="#000"/><rect width="1" height="1" x="32" y="30" fill="#000"/><rect width="1" height="1" x="33" y="30" fill="#000"/><rect width="1" height="1" x="35" y="30" fill="#000"/><rect width="1" height="1" x="36" y="30" fill="#000"/><rect width="1" height="1" x="0" y="31" fill="#000"/><rect width="1" height="1" x="6" y="31" fill="#000"/><rect width="1" height="1" x="12" y="31" fill="#000"/><rect width="1" height="1" x="13" y="31" fill="#000"/><rect width="1" height="1" x="16" y="31" fill="#000"/><rect width="1" height="1" x="18" y="31" fill="#000"/><rect width="1" height="1" x="19" y="31" fill="#000"/><rect width="1" height="1" x="21" y="31" fill="#000"/><rect width="1" height="1" x="22" y="31" fill="#000"/><rect width="1" height="1" x="24" y="31" fill="#000"/><rect width="1" height="1" x="28" y="31" fill="#000"/><rect width="1" height="1" x="32" y="31" fill="#000"/><rect width="1" height="1" x="35" y="31" fill="#000"/><rect width="1" height="1" x="0" y="32" fill="#000"/><rect width="1" height="1" x="2" y="32" fill="#000"/><rect width="1" height="1" x="3" y="32" fill="#000"/><rect width="1" height="1" x="4" y="32" fill="#000"/><rect width="1" height="1" x="6" y="32" fill="#000"/><rect width="1" height="1" x="8" y="32" fill="#000"/><rect width="1" height="1" x="11" y="32" fill="#000"/><rect width="1" height="1" x="13" y="32" fill="#000"/><rect width="1" height="1" x="14" y="32" fill="#000"/><rect width="1" height="1" x="15" y="32" fill="#000"/><rect width="1" height="1" x="18" y="32" fill="#000"/><rect width="1" height="1" x="19" y="32" fill="#000"/><rect width="1" height="1" x="20" y="32" fill="#000"/><rect width="1" height="1" x="25" y="32" fill="#000"/><rect width="1" height="1" x="27" y="32" fill="#000"/><rect width="1" height="1" x="28" y="32" fill="#000"/><rect width="1" height="1" x="29" y="32" fill="#000"/><rect width="1" height="1" x="30" y="32" fill="#000"/><rect width="1" height="1" x="31" y="32" fill="#000"/><rect width="1" height="1" x="32" y="32" fill="#000"/><rect width="1" height="1" x="34" y="32" fill="#000"/><rect width="1" height="1" x="36" y="32" fill="#000"/><rect width="1" height="1" x="0" y="33" fill="#000"/><rect width="1" height="1" x="2" y="33" fill="#000"/><rect width="1" height="1" x="3" y="33" fill="#000"/><rect width="1" height="1" x="4" y="33" fill="#000"/><rect width="1" height="1" x="6" y="33" fill="#000"/><rect width="1" height="1" x="8" y="33" fill="#000"/><rect width="1" height="1" x="11" y="33" fill="#000"/><rect width="1" height="1" x="14" y="33" fill="#000"/><rect width="1" height="1" x="18" y="33" fill="#000"/><rect width="1" height="1" x="20" y="33" fill="#000"/><rect width="1" height="1" x="21" y="33" fill="#000"/><rect width="1" height="1" x="22" y="33" fill="#000"/><rect width="1" height="1" x="24" y="33" fill="#000"/><rect width="1" height="1" x="27" y="33" fill="#000"/><rect width="1" height="1" x="30" y="33" fill="#000"/><rect width="1" height="1" x="32" y="33" fill="#000"/><rect width="1" height="1" x="0" y="34" fill="#000"/><rect width="1" height="1" x="2" y="34" fill="#000"/><rect width="1" height="1" x="3" y="34" fill="#000"/><rect width="1" height="1" x="4" y="34" fill="#000"/><rect width="1" height="1" x="6" y="34" fill="#000"/><rect width="1" height="1" x="8" y="34" fill="#000"/><rect width="1" height="1" x="10" y="34" fill="#000"/><rect width="1" height="1" x="11" y="34" fill="#000"/><rect width="1" height="1" x="12" y="34" fill="#000"/><rect width="1" height="1" x="13" y="34" fill="#000"/><rect width="1" height="1" x="14" y="34" fill="#000"/><rect width="1" height="1" x="15" y="34" fill="#000"/><rect width="1" height="1" x="17" y="34" fill="#000"/><rect width="1" height="1" x="22" y="34" fill="#000"/><rect width="1" height="1" x="25" y="34" fill="#000"/><rect width="1" height="1" x="27" y="34" fill="#000"/><rect width="1" height="1" x="28" y="34" fill="#000"/><rect width="1" height="1" x="31" y="34" fill="#000"/><rect width="1" height="1" x="33" y="34" fill="#000"/><rect width="1" height="1" x="34" y="34" fill="#000"/><rect width="1" height="1" x="36" y="34" fill="#000"/><rect width="1" height="1" x="0" y="35" fill="#000"/><rect width="1" height="1" x="6" y="35" fill="#000"/><rect width="1" height="1" x="10" y="35" fill="#000"/><rect width="1" height="1" x="11" y="35" fill="#000"/><rect width="1" height="1" x="15" y="35" fill="#000"/><rect width="1" height="1" x="16" y="35" fill="#000"/><rect width="1" height="1" x="17" y="35" fill="#000"/><rect width="1" height="1" x="18" y="35" fill="#000"/><rect width="1" height="1" x="19" y="35" fill="#000"/><rect width="1" height="1" x="20" y="35" fill="#000"/><rect width="1" height="1" x="21" y="35" fill="#000"/><rect width="1" height="1" x="22" y="35" fill="#000"/><rect width="1" height="1" x="24" y="35" fill="#000"/><rect width="1" height="1" x="27" y="35" fill="#000"/><rect width="1" height="1" x="28" y="35" fill="#000"/><rect width="1" height="1" x="29" y="35" fill="#000"/><rect width="1" height="1" x="32" y="35" fill="#000"/><rect width="1" height="1" x="36" y="35" fill="#000"/><rect width="1" height="1" x="0" y="36" fill="#000"/><rect width="1" height="1" x="1" y="36" fill="#000"/><rect width="1" height="1" x="2" y="36" fill="#000"/><rect width="1" height="1" x="3" y="36" fill="#000"/><rect width="1" height="1" x="4" y="36" fill="#000"/><rect width="1" height="1" x="5" y="36" fill="#000"/><rect width="1" height="1" x="6" y="36" fill="#000"/><rect width="1" height="1" x="9" y="36" fill="#000"/><rect width="1" height="1" x="10" y="36" fill="#000"/><rect width="1" height="1" x="12" y="36" fill="#000"/><rect width="1" height="1" x="13" y="36" fill="#000"/><rect width="1" height="1" x="15" y="36" fill="#000"/><rect width="1" height="1" x="17" y="36" fill="#000"/><rect width="1" height="1" x="20" y="36" fill="#000"/><rect width="1" height="1" x="22" y="36" fill="#000"/><rect width="1" height="1" x="25" y="36" fill="#000"/><rect width="1" height="1" x="27" y="36" fill="#000"/><rect width="1" height="1" x="31" y="36" fill="#000"/><rect width="1" height="1" x="33" y="36" fill="#000"/><rect width="1" height="1" x="34" y="36" fill="#000"/><rect width="1" height="1" x="35" y="36" fill="#000"/><rect width="1" height="1" x="36" y="36" fill="#000"/></g></g></svg>